<svg version="1.1" id="Layer_1" xmlns="http://www.w3.org/2000/svg" xmlns:xlink="http://www.w3.org/1999/xlink" x="0px" y="0px"
	 width="100%" viewBox="0 0 500 500" enable-background="new 0 0 500 500" xml:space="preserve">
<path fill="#000000" opacity="1.000000" stroke="none" 
	d="
M223.000000,501.000000 
	C148.666687,501.000000 74.833366,501.000000 1.000040,501.000000 
	C1.000026,334.333405 1.000026,167.666779 1.000013,1.000129 
	C167.666565,1.000086 334.333130,1.000086 500.999756,1.000043 
	C500.999847,167.666534 500.999847,334.333069 500.999939,500.999817 
	C408.500000,501.000000 316.000000,501.000000 223.000000,501.000000 
M181.169357,204.270905 
	C178.065857,207.763321 180.151749,210.645218 181.807449,214.018066 
	C184.003372,218.491409 187.702789,217.008774 190.825150,216.815384 
	C192.335358,216.721848 193.717651,214.563507 195.745621,212.928604 
	C198.988327,209.547836 196.978607,206.656601 195.391251,203.244080 
	C193.435318,199.039154 190.127380,200.310471 187.031540,199.945938 
	C183.876328,199.574448 182.515121,201.256287 181.169357,204.270905 
M245.317825,169.466415 
	C249.018661,168.137955 251.394882,169.261581 253.271072,172.846390 
	C254.034409,174.304886 256.369598,175.376221 258.169647,175.745117 
	C260.364227,176.194855 262.748413,175.719406 265.968079,175.807343 
	C280.337372,175.807343 294.706696,175.807343 310.226776,175.807343 
	C303.291962,168.185699 295.950958,162.944290 287.083893,161.231842 
	C278.534546,159.580765 269.632690,159.829575 260.917938,158.931000 
	C256.022400,158.426193 252.982681,160.055206 251.137146,165.219559 
	C247.398941,166.876541 245.050461,165.571823 243.196548,162.040070 
	C241.095490,158.037567 234.315521,157.598572 230.460007,161.407928 
	C227.482864,165.086609 226.917633,168.400696 229.842239,172.887939 
	C232.505936,176.974869 235.820114,175.493500 239.030792,175.815109 
	C243.241898,176.236908 242.821915,171.948456 245.317825,169.466415 
M316.473267,232.495361 
	C318.071350,228.826675 319.669434,225.158005 321.483002,220.994690 
	C313.273712,220.994690 306.138123,220.994690 298.233948,220.789017 
	C294.150604,220.858826 290.067261,220.928619 285.056274,220.870361 
	C278.034515,220.931320 271.012726,220.992279 263.068512,220.881332 
	C255.380081,220.937195 247.691650,220.993057 239.117569,220.875732 
	C237.297729,220.862228 235.359833,220.450577 233.690765,220.945526 
	C231.970856,221.455536 230.512802,222.848602 228.334854,224.325821 
	C225.336838,228.550415 222.131454,228.757889 219.633362,224.889069 
	C216.725632,220.385818 212.603638,219.430511 206.220276,222.257385 
	C203.654846,226.280640 202.207642,229.880585 205.535278,234.746277 
	C208.442993,238.997910 212.023453,237.517227 215.228531,237.249588 
	C216.642151,237.131546 217.800034,233.950943 219.854599,231.954971 
	C223.565796,230.012756 226.470306,230.057144 228.813095,234.342117 
	C229.666031,235.902191 232.206284,237.136932 234.123215,237.384140 
	C237.345993,237.799759 240.685913,237.306961 244.875305,237.457825 
	C249.255692,237.367706 253.636063,237.277603 258.911652,237.459579 
	C266.260712,237.367126 273.609802,237.274673 281.863800,237.455673 
	C289.538147,237.391632 297.212524,237.327591 305.735657,237.553970 
	C310.001770,237.938187 314.284180,238.359268 316.473267,232.495361 
M298.760925,250.972031 
	C302.452972,248.099487 306.145050,245.226929 309.837128,242.354385 
	C309.618164,242.009033 309.399200,241.663696 309.180267,241.318344 
	C302.106964,241.318344 295.033661,241.318344 287.037476,241.196777 
	C281.685760,241.260071 276.334015,241.323364 270.070038,241.209793 
	C265.712067,241.267044 261.354126,241.324295 256.090942,241.198364 
	C252.384995,241.258423 248.679062,241.318481 244.054520,241.202759 
	C238.936951,241.185715 233.807297,241.378769 228.705582,241.085693 
	C224.563644,240.847778 221.521423,241.531479 219.681046,245.877090 
	C218.413193,248.870850 213.435608,249.052597 212.308868,246.159775 
	C210.041061,240.337296 205.710190,240.715515 200.077499,241.206314 
	C195.764603,241.192703 191.449936,241.096954 187.139343,241.190018 
	C183.299774,241.272888 178.943176,247.791885 180.446609,251.190384 
	C182.376587,255.553146 184.599930,259.150299 190.621460,258.151550 
	C194.819534,257.455200 199.270828,257.618469 203.526276,258.111725 
	C208.353607,258.671234 210.970871,256.732117 213.023758,251.843704 
	C216.472031,250.286148 218.787521,251.202332 220.693298,254.593719 
	C221.548859,256.116241 223.690201,257.854401 225.274780,257.880585 
	C237.842407,258.088226 250.416458,257.907227 263.901794,257.992889 
	C267.600616,257.943420 271.299408,257.893921 275.835815,257.957855 
	C279.226013,257.303955 282.616211,256.650085 286.770966,256.049103 
	C290.539978,254.388107 294.309021,252.727097 298.760925,250.972031 
M246.904877,210.744781 
	C250.242050,209.443787 253.043030,209.717407 254.468201,213.515762 
	C255.562714,216.432831 257.572693,217.395569 260.604004,217.050674 
	C263.050110,216.772339 265.542053,216.896469 268.939758,216.983551 
	C278.289978,216.933060 287.640167,216.882584 297.917908,216.974701 
	C303.272522,216.932465 308.627106,216.890228 314.861542,216.995209 
	C317.151794,216.995209 319.442078,216.995209 322.199524,216.995209 
	C322.199524,211.266739 322.199524,205.911804 322.199524,200.372208 
	C312.775360,200.372208 303.874237,200.372208 294.056152,200.211563 
	C289.029205,200.272232 284.002289,200.332886 278.057098,200.215698 
	C272.430267,200.198425 266.789124,200.419724 261.181519,200.082611 
	C257.241364,199.845718 254.907928,201.166565 253.411957,205.462097 
	C250.318771,208.205627 247.407974,208.112076 245.668503,204.219315 
	C244.047577,200.591812 241.602829,199.494690 237.895203,199.951584 
	C235.620575,200.231857 233.295807,200.105240 230.087875,200.026764 
	C227.922882,200.017548 225.737457,200.192780 223.597702,199.955765 
	C220.405502,199.602188 218.504776,200.798126 217.285675,204.329727 
	C216.787827,206.251556 215.426910,208.462570 215.955566,210.040466 
	C217.481369,214.594543 219.985718,218.303162 226.027527,217.090332 
	C228.914963,216.510696 231.994781,216.889481 235.863586,216.981155 
	C240.945175,217.865997 244.793503,216.579834 246.904877,210.744781 
M294.016266,179.569641 
	C289.011536,179.644684 284.006775,179.719727 278.091614,179.562851 
	C273.064697,179.644318 268.037811,179.725769 262.093140,179.595840 
	C256.394348,179.676712 250.695572,179.757599 244.096375,179.603882 
	C241.965363,179.578049 239.820770,179.695160 237.706390,179.494202 
	C234.173767,179.158463 231.572281,180.049316 230.195602,184.392761 
	C226.743134,187.482925 224.408768,187.369537 222.218704,184.005280 
	C217.685425,177.041412 210.847916,177.404312 206.861069,184.820358 
	C205.312424,187.701050 207.159500,194.192612 210.062668,196.072433 
	C212.951157,197.942749 219.463715,196.073013 221.357285,192.829773 
	C224.043793,188.228424 227.912460,188.292389 230.954773,192.705399 
	C232.032715,194.268967 233.843338,196.078217 235.525955,196.316360 
	C238.927979,196.797867 242.471222,196.281570 246.862473,196.444717 
	C252.249100,196.354019 257.635712,196.263321 263.916168,196.440735 
	C269.591766,196.360825 275.267334,196.280930 281.847107,196.477829 
	C286.902405,196.389435 291.957672,196.301025 297.914215,196.457703 
	C303.245453,196.394958 308.576691,196.332199 314.739258,196.550232 
	C316.789215,196.550232 318.839172,196.550232 322.171295,196.550232 
	C319.366577,190.799179 317.290802,186.137787 314.799988,181.709854 
	C314.147003,180.549072 312.222534,179.489822 310.853882,179.453918 
	C305.551544,179.314758 300.237885,179.607376 294.016266,179.569641 
M196.889053,292.454224 
	C200.703461,285.346680 198.217651,280.284210 190.353668,279.556183 
	C186.968018,279.242767 183.529190,279.503693 180.004272,279.503693 
	C180.004272,288.249634 180.004272,296.484070 180.004272,305.042969 
	C181.780792,304.953583 183.328278,304.875702 185.162354,304.783417 
	C185.162354,301.610352 185.162354,298.833923 185.162354,296.244965 
	C190.211136,294.452118 190.710236,298.580292 191.844788,301.168365 
	C193.384155,304.679871 195.473297,305.962189 199.506927,304.459381 
	C198.167282,301.912598 196.641617,299.530365 195.680481,296.938751 
	C195.276535,295.849609 196.066360,294.317719 196.889053,292.454224 
M221.422836,288.161407 
	C223.559723,285.487000 225.696609,282.812622 228.064758,279.848785 
	C218.862030,277.396240 218.415329,286.736603 212.954773,289.807678 
	C212.954773,286.183228 212.954773,282.954468 212.954773,279.590759 
	C211.088379,279.590759 209.657669,279.590759 208.009766,279.590759 
	C208.009766,288.080322 208.009766,296.361786 208.009766,304.768738 
	C209.631897,304.768738 211.201202,304.768738 212.457413,304.768738 
	C213.099121,301.456543 213.682205,298.446930 214.329010,295.108368 
	C220.064606,297.900665 219.382324,307.617126 228.224548,304.410461 
	C225.797211,300.703705 223.271835,297.220184 221.206604,293.482422 
	C220.523315,292.245789 221.025589,290.354095 221.422836,288.161407 
M405.384766,283.895447 
	C406.294525,282.616669 407.204315,281.337921 408.246643,279.872803 
	C399.456848,277.108612 399.175629,286.747284 393.547546,289.215088 
	C393.547546,285.797668 393.547546,282.855255 393.547546,279.696136 
	C391.605621,279.696136 390.056244,279.696136 388.380219,279.696136 
	C388.380219,288.277283 388.380219,296.525452 388.380219,305.087891 
	C390.241638,304.971832 391.817749,304.873566 393.008362,304.799347 
	C393.738647,301.334473 394.371063,298.333832 395.110382,294.826080 
	C400.327026,298.478943 400.179413,307.265930 408.767426,304.513580 
	C405.744385,299.837250 402.875031,295.398712 399.916229,290.821777 
	C401.658051,288.623749 403.297546,286.554840 405.384766,283.895447 
M108.397255,304.969910 
	C111.687950,303.930756 114.002342,302.057587 114.012100,298.280151 
	C114.022293,294.332062 111.471466,292.355743 108.244087,290.961151 
	C107.027565,290.435486 105.612701,290.250763 104.543739,289.531128 
	C103.156326,288.597168 101.951355,287.344879 100.876106,286.055878 
	C100.745567,285.899384 101.917969,284.036591 102.464745,284.047577 
	C104.301880,284.084534 106.206017,284.394745 107.939392,285.009521 
	C109.806877,285.671844 111.510864,286.795166 114.005173,288.090820 
	C113.721809,282.210480 110.835716,280.174988 107.035400,279.368042 
	C102.896362,278.489197 98.874008,279.236389 96.291267,282.874512 
	C93.977974,286.133026 95.008965,289.379974 98.105209,291.586090 
	C100.092331,293.001923 102.642540,293.601562 104.766235,294.860718 
	C106.204597,295.713593 107.452782,296.987701 108.495232,298.303711 
	C108.659111,298.510590 107.254250,300.688416 106.614319,300.668732 
	C104.606773,300.606934 102.513023,300.186462 100.651604,299.421082 
	C98.778580,298.650940 97.143875,297.301208 94.406769,295.576660 
	C95.777664,303.812378 98.951210,305.703674 108.397255,304.969910 
M252.328140,287.045868 
	C252.587219,285.844086 253.437195,284.344635 253.006760,283.490204 
	C250.704605,278.920227 243.360413,277.656525 238.489609,280.774719 
	C234.402252,283.391357 233.862976,288.176636 237.667343,291.197632 
	C239.687592,292.801880 242.423187,293.471954 244.685272,294.817017 
	C246.133377,295.678101 247.425507,296.904816 248.487839,298.211334 
	C248.668350,298.433319 247.322662,300.642212 246.700867,300.633240 
	C244.690643,300.604218 242.592072,300.221619 240.711258,299.497803 
	C238.771149,298.751190 237.046265,297.445282 235.227234,296.384094 
	C236.445206,304.819458 245.967941,308.003815 251.612640,303.392426 
	C255.062393,300.574188 254.977356,295.448242 251.122726,292.684479 
	C249.147614,291.268311 246.556793,290.739807 244.446091,289.473633 
	C243.044678,288.632996 241.932281,287.251221 240.892136,285.950439 
	C240.775879,285.805054 242.004089,283.985291 242.563187,284.009186 
	C244.392059,284.087341 246.248642,284.511353 247.999268,285.090454 
	C249.247726,285.503448 250.342865,286.379913 252.328140,287.045868 
M280.148315,297.091217 
	C278.610626,297.091217 277.072937,297.091217 275.371216,297.091217 
	C277.519135,304.861969 287.073822,307.994080 292.658722,303.354156 
	C296.078186,300.513275 295.947052,295.389130 292.075958,292.644745 
	C290.091156,291.237640 287.533203,290.667236 285.379974,289.459106 
	C284.045227,288.710205 282.843018,287.581787 281.915771,286.368225 
	C281.724945,286.118469 282.964386,284.060211 283.638855,284.005859 
	C285.325592,283.869965 287.165314,284.142242 288.760193,284.740143 
	C290.690125,285.463654 292.431274,286.690796 295.282074,288.269104 
	C293.462311,280.547333 288.453369,277.422424 282.526978,279.711975 
	C280.000793,280.687897 276.965759,283.473694 276.557373,285.848877 
	C276.209351,287.872864 278.939911,290.878510 280.972351,292.715515 
	C282.581238,294.169708 285.338531,294.271667 287.307587,295.442261 
	C288.348938,296.061340 289.563873,297.901917 289.307343,298.787445 
	C289.020935,299.776123 286.878326,301.145905 286.032898,300.866913 
	C284.136322,300.241150 282.542725,298.697144 280.148315,297.091217 
M347.311676,291.025940 
	C346.176819,287.905151 345.221405,284.699615 343.809845,281.709442 
	C343.314850,280.660858 341.761383,279.686249 340.575287,279.523621 
	C339.618164,279.392395 337.867279,280.288574 337.529358,281.146698 
	C334.475128,288.902893 331.654724,296.751129 328.704681,304.737823 
	C332.094421,305.209229 334.480194,305.633057 335.541565,301.838013 
	C335.837860,300.778473 338.994751,300.049835 340.846741,300.034058 
	C342.506195,300.019928 345.327576,300.855865 345.636993,301.905914 
	C346.833832,305.967285 349.291901,305.244659 352.375000,304.623871 
	C350.736176,300.124603 349.205475,295.922150 347.311676,291.025940 
M122.875877,304.710571 
	C124.446877,304.802155 126.017876,304.893738 128.074722,305.013672 
	C128.074722,301.724854 128.074722,298.987244 128.074722,295.956085 
	C130.519608,295.956085 132.518600,296.136963 134.473465,295.920074 
	C139.156891,295.400513 141.967560,292.460358 142.024918,288.168030 
	C142.087891,283.453674 139.646545,280.430298 135.100662,279.879639 
	C131.072983,279.391724 126.939461,279.777374 122.480988,279.777374 
	C122.480988,287.980530 122.480988,295.939850 122.875877,304.710571 
M148.862915,303.754883 
	C150.449997,304.323090 152.037094,304.891296 153.893906,305.556061 
	C155.085342,297.279083 160.614349,300.431641 164.844086,300.048584 
	C165.898102,303.883209 167.430862,306.686249 172.043289,304.293030 
	C169.300751,296.896057 166.681442,289.546143 163.787903,282.305817 
	C163.300903,281.087250 161.531982,279.477783 160.528397,279.590424 
	C159.180298,279.741730 157.388489,281.139557 156.851044,282.441467 
	C154.063309,289.194611 151.614212,296.087555 148.862915,303.754883 
M362.201721,302.237030 
	C365.827118,305.921661 370.355713,306.363708 374.564636,304.278839 
	C377.086273,303.029724 378.722137,299.992493 380.756134,297.759003 
	C380.149384,297.060547 379.542664,296.362122 378.935913,295.663666 
	C377.298706,296.708252 375.721710,297.867950 374.007019,298.764282 
	C372.370239,299.619904 370.503693,300.892517 368.899292,300.692078 
	C367.528412,300.520813 365.538269,298.661255 365.312164,297.300812 
	C364.776917,294.080292 364.773499,290.656158 365.287354,287.431030 
	C365.504456,286.068390 367.441620,284.217438 368.818695,284.001282 
	C370.421783,283.749603 372.337738,284.902496 373.989532,285.708832 
	C375.786591,286.586060 377.436279,287.765228 380.222504,289.468140 
	C378.582581,281.913330 375.806854,279.359100 370.575897,279.070312 
	C365.517120,278.791046 361.463806,281.450287 359.996277,286.361694 
	C358.416199,291.649689 358.534241,296.848969 362.201721,302.237030 
M314.999207,298.401001 
	C314.999207,293.630829 314.999207,288.860626 314.999207,284.083008 
	C317.847168,283.943420 320.132324,283.831421 322.417511,283.719452 
	C322.733307,283.254578 323.049103,282.789703 323.364899,282.324860 
	C322.211578,281.335876 321.099274,279.554779 319.897980,279.492554 
	C314.118530,279.193298 308.315094,279.357971 302.297302,279.357971 
	C302.297302,281.039032 302.297302,282.362183 302.297302,283.763245 
	C304.918152,283.901794 307.186218,284.021667 309.814667,284.160614 
	C309.814667,291.290009 309.814667,298.036316 309.814667,304.888824 
	C311.652313,304.888824 313.104279,304.888824 314.999207,304.888824 
	C314.999207,302.952026 314.999207,301.158325 314.999207,298.401001 
z"/>
<path fill="#2399D1" opacity="1.000000" stroke="none" 
	d="
M251.802277,164.888214 
	C252.982681,160.055206 256.022400,158.426193 260.917938,158.931000 
	C269.632690,159.829575 278.534546,159.580765 287.083893,161.231842 
	C295.950958,162.944290 303.291962,168.185699 310.226776,175.807343 
	C294.706696,175.807343 280.337372,175.807343 265.481262,175.382767 
	C260.597046,171.601532 256.199646,168.244873 251.802277,164.888214 
z"/>
<path fill="#B7A4B6" opacity="1.000000" stroke="none" 
	d="
M201.003143,241.366318 
	C205.710190,240.715515 210.041061,240.337296 212.308868,246.159775 
	C213.435608,249.052597 218.413193,248.870850 219.681046,245.877090 
	C221.521423,241.531479 224.563644,240.847778 228.705582,241.085693 
	C233.807297,241.378769 238.936951,241.185715 244.535141,241.632309 
	C248.206100,244.958282 251.362900,247.892807 254.597046,250.739471 
	C257.347931,253.160767 260.187958,255.480759 262.988525,257.845581 
	C250.416458,257.907227 237.842407,258.088226 225.274780,257.880585 
	C223.690201,257.854401 221.548859,256.116241 220.693298,254.593719 
	C218.787521,251.202332 216.472031,250.286148 212.472778,251.792831 
	C209.506195,249.850113 206.974518,248.085220 204.716736,246.020752 
	C203.269913,244.697800 202.227081,242.933014 201.003143,241.366318 
z"/>
<path fill="#5FA0C9" opacity="1.000000" stroke="none" 
	d="
M296.990387,216.832092 
	C287.640167,216.882584 278.289978,216.933060 268.409546,216.581055 
	C263.256348,212.448898 258.633362,208.719238 254.010361,204.989578 
	C254.907928,201.166565 257.241364,199.845718 261.181519,200.082611 
	C266.789124,200.419724 272.430267,200.198425 278.539856,200.645477 
	C280.901398,202.984818 282.657593,205.037491 284.684875,206.773651 
	C288.707642,210.218781 292.879883,213.489380 296.990387,216.832092 
z"/>
<path fill="#E3ABB2" opacity="1.000000" stroke="none" 
	d="
M200.540314,241.286316 
	C202.227081,242.933014 203.269913,244.697800 204.716736,246.020752 
	C206.974518,248.085220 209.506195,249.850113 212.110016,252.059723 
	C210.970871,256.732117 208.353607,258.671234 203.526276,258.111725 
	C199.270828,257.618469 194.819534,257.455200 190.621460,258.151550 
	C184.599930,259.150299 182.376587,255.553146 180.446609,251.190384 
	C178.943176,247.791885 183.299774,241.272888 187.139343,241.190018 
	C191.449936,241.096954 195.764603,241.192703 200.540314,241.286316 
z"/>
<path fill="#77A0C2" opacity="1.000000" stroke="none" 
	d="
M245.956238,196.176727 
	C242.471222,196.281570 238.927979,196.797867 235.525955,196.316360 
	C233.843338,196.078217 232.032715,194.268967 230.954773,192.705399 
	C227.912460,188.292389 224.043793,188.228424 221.357285,192.829773 
	C219.463715,196.073013 212.951157,197.942749 210.062668,196.072433 
	C207.159500,194.192612 205.312424,187.701050 206.861069,184.820358 
	C210.847916,177.404312 217.685425,177.041412 222.218704,184.005280 
	C224.408768,187.369537 226.743134,187.482925 230.812103,184.321320 
	C235.337555,186.994690 239.312714,189.652161 243.116196,192.536057 
	C244.301559,193.434830 245.022629,194.945923 245.956238,196.176727 
z"/>
<path fill="#89A3C1" opacity="1.000000" stroke="none" 
	d="
M240.003220,221.048935 
	C247.691650,220.993057 255.380081,220.937195 263.591522,221.304993 
	C268.119781,224.972412 272.221710,228.106216 276.088287,231.507645 
	C277.941559,233.137985 279.349335,235.274780 280.958862,237.182205 
	C273.609802,237.274673 266.260712,237.367126 258.428162,237.011475 
	C255.477722,234.482971 252.987152,232.429749 250.549347,230.315704 
	C247.013992,227.249817 243.516739,224.139999 240.003220,221.048935 
z"/>
<path fill="#77A0C2" opacity="1.000000" stroke="none" 
	d="
M281.411316,237.318939 
	C279.349335,235.274780 277.941559,233.137985 276.088287,231.507645 
	C272.221710,228.106216 268.119781,224.972412 264.052734,221.390961 
	C271.012726,220.992279 278.034515,220.931320 285.704010,221.215607 
	C291.382294,225.338364 296.477356,229.034546 301.402618,232.944626 
	C302.816101,234.066772 303.739044,235.806808 304.886871,237.263550 
	C297.212524,237.327591 289.538147,237.391632 281.411316,237.318939 
z"/>
<path fill="#CDCDCD" opacity="1.000000" stroke="none" 
	d="
M196.601273,292.720673 
	C196.066360,294.317719 195.276535,295.849609 195.680481,296.938751 
	C196.641617,299.530365 198.167282,301.912598 199.506927,304.459381 
	C195.473297,305.962189 193.384155,304.679871 191.844788,301.168365 
	C190.710236,298.580292 190.211136,294.452118 185.162354,296.244965 
	C185.162354,298.833923 185.162354,301.610352 185.162354,304.783417 
	C183.328278,304.875702 181.780792,304.953583 180.004272,305.042969 
	C180.004272,296.484070 180.004272,288.249634 180.004272,279.503693 
	C183.529190,279.503693 186.968018,279.242767 190.353668,279.556183 
	C198.217651,280.284210 200.703461,285.346680 196.601273,292.720673 
M192.486877,290.014465 
	C193.802673,284.223145 192.726257,283.363098 185.311707,284.380341 
	C185.311707,286.583862 185.311707,288.798615 185.311707,291.451294 
	C187.690414,291.140686 189.759232,290.870544 192.486877,290.014465 
z"/>
<path fill="#CDCDCD" opacity="1.000000" stroke="none" 
	d="
M221.204315,288.461670 
	C221.025589,290.354095 220.523315,292.245789 221.206604,293.482422 
	C223.271835,297.220184 225.797211,300.703705 228.224548,304.410461 
	C219.382324,307.617126 220.064606,297.900665 214.329010,295.108368 
	C213.682205,298.446930 213.099121,301.456543 212.457413,304.768738 
	C211.201202,304.768738 209.631897,304.768738 208.009766,304.768738 
	C208.009766,296.361786 208.009766,288.080322 208.009766,279.590759 
	C209.657669,279.590759 211.088379,279.590759 212.954773,279.590759 
	C212.954773,282.954468 212.954773,286.183228 212.954773,289.807678 
	C218.415329,286.736603 218.862030,277.396240 228.064758,279.848785 
	C225.696609,282.812622 223.559723,285.487000 221.204315,288.461670 
z"/>
<path fill="#C8C8C8" opacity="1.000000" stroke="none" 
	d="
M405.160919,284.190674 
	C403.297546,286.554840 401.658051,288.623749 399.916229,290.821777 
	C402.875031,295.398712 405.744385,299.837250 408.767426,304.513580 
	C400.179413,307.265930 400.327026,298.478943 395.110382,294.826080 
	C394.371063,298.333832 393.738647,301.334473 393.008362,304.799347 
	C391.817749,304.873566 390.241638,304.971832 388.380219,305.087891 
	C388.380219,296.525452 388.380219,288.277283 388.380219,279.696136 
	C390.056244,279.696136 391.605621,279.696136 393.547546,279.696136 
	C393.547546,282.855255 393.547546,285.797668 393.547546,289.215088 
	C399.175629,286.747284 399.456848,277.108612 408.246643,279.872803 
	C407.204315,281.337921 406.294525,282.616669 405.160919,284.190674 
z"/>
<path fill="#CDCDCD" opacity="1.000000" stroke="none" 
	d="
M108.013092,305.021973 
	C98.951210,305.703674 95.777664,303.812378 94.406769,295.576660 
	C97.143875,297.301208 98.778580,298.650940 100.651604,299.421082 
	C102.513023,300.186462 104.606773,300.606934 106.614319,300.668732 
	C107.254250,300.688416 108.659111,298.510590 108.495232,298.303711 
	C107.452782,296.987701 106.204597,295.713593 104.766235,294.860718 
	C102.642540,293.601562 100.092331,293.001923 98.105209,291.586090 
	C95.008965,289.379974 93.977974,286.133026 96.291267,282.874512 
	C98.874008,279.236389 102.896362,278.489197 107.035400,279.368042 
	C110.835716,280.174988 113.721809,282.210480 114.005173,288.090820 
	C111.510864,286.795166 109.806877,285.671844 107.939392,285.009521 
	C106.206017,284.394745 104.301880,284.084534 102.464745,284.047577 
	C101.917969,284.036591 100.745567,285.899384 100.876106,286.055878 
	C101.951355,287.344879 103.156326,288.597168 104.543739,289.531128 
	C105.612701,290.250763 107.027565,290.435486 108.244087,290.961151 
	C111.471466,292.355743 114.022293,294.332062 114.012100,298.280151 
	C114.002342,302.057587 111.687950,303.930756 108.013092,305.021973 
z"/>
<path fill="#CDCDCD" opacity="1.000000" stroke="none" 
	d="
M251.917267,287.047729 
	C250.342865,286.379913 249.247726,285.503448 247.999268,285.090454 
	C246.248642,284.511353 244.392059,284.087341 242.563187,284.009186 
	C242.004089,283.985291 240.775879,285.805054 240.892136,285.950439 
	C241.932281,287.251221 243.044678,288.632996 244.446091,289.473633 
	C246.556793,290.739807 249.147614,291.268311 251.122726,292.684479 
	C254.977356,295.448242 255.062393,300.574188 251.612640,303.392426 
	C245.967941,308.003815 236.445206,304.819458 235.227234,296.384094 
	C237.046265,297.445282 238.771149,298.751190 240.711258,299.497803 
	C242.592072,300.221619 244.690643,300.604218 246.700867,300.633240 
	C247.322662,300.642212 248.668350,298.433319 248.487839,298.211334 
	C247.425507,296.904816 246.133377,295.678101 244.685272,294.817017 
	C242.423187,293.471954 239.687592,292.801880 237.667343,291.197632 
	C233.862976,288.176636 234.402252,283.391357 238.489609,280.774719 
	C243.360413,277.656525 250.704605,278.920227 253.006760,283.490204 
	C253.437195,284.344635 252.587219,285.844086 251.917267,287.047729 
z"/>
<path fill="#CDCDCD" opacity="1.000000" stroke="none" 
	d="
M280.487030,297.309082 
	C282.542725,298.697144 284.136322,300.241150 286.032898,300.866913 
	C286.878326,301.145905 289.020935,299.776123 289.307343,298.787445 
	C289.563873,297.901917 288.348938,296.061340 287.307587,295.442261 
	C285.338531,294.271667 282.581238,294.169708 280.972351,292.715515 
	C278.939911,290.878510 276.209351,287.872864 276.557373,285.848877 
	C276.965759,283.473694 280.000793,280.687897 282.526978,279.711975 
	C288.453369,277.422424 293.462311,280.547333 295.282074,288.269104 
	C292.431274,286.690796 290.690125,285.463654 288.760193,284.740143 
	C287.165314,284.142242 285.325592,283.869965 283.638855,284.005859 
	C282.964386,284.060211 281.724945,286.118469 281.915771,286.368225 
	C282.843018,287.581787 284.045227,288.710205 285.379974,289.459106 
	C287.533203,290.667236 290.091156,291.237640 292.075958,292.644745 
	C295.947052,295.389130 296.078186,300.513275 292.658722,303.354156 
	C287.073822,307.994080 277.519135,304.861969 275.371216,297.091217 
	C277.072937,297.091217 278.610626,297.091217 280.487030,297.309082 
z"/>
<path fill="#3C96C5" opacity="1.000000" stroke="none" 
	d="
M294.973114,200.372208 
	C303.874237,200.372208 312.775360,200.372208 322.199524,200.372208 
	C322.199524,205.911804 322.199524,211.266739 322.199524,216.995209 
	C319.442078,216.995209 317.151794,216.995209 314.359741,216.590790 
	C310.381134,213.541046 306.809113,211.010010 303.456146,208.216125 
	C300.501373,205.754028 297.791260,202.998276 294.973114,200.372208 
z"/>
<path fill="#CDCDCD" opacity="1.000000" stroke="none" 
	d="
M347.493225,291.372803 
	C349.205475,295.922150 350.736176,300.124603 352.375000,304.623871 
	C349.291901,305.244659 346.833832,305.967285 345.636993,301.905914 
	C345.327576,300.855865 342.506195,300.019928 340.846741,300.034058 
	C338.994751,300.049835 335.837860,300.778473 335.541565,301.838013 
	C334.480194,305.633057 332.094421,305.209229 328.704681,304.737823 
	C331.654724,296.751129 334.475128,288.902893 337.529358,281.146698 
	C337.867279,280.288574 339.618164,279.392395 340.575287,279.523621 
	C341.761383,279.686249 343.314850,280.660858 343.809845,281.709442 
	C345.221405,284.699615 346.176819,287.905151 347.493225,291.372803 
M340.541992,295.369202 
	C343.680878,294.206024 343.649231,293.049347 340.327545,287.533051 
	C337.915985,293.446472 337.915985,293.446472 340.541992,295.369202 
z"/>
<path fill="#C8C8C8" opacity="1.000000" stroke="none" 
	d="
M122.678436,304.304871 
	C122.480988,295.939850 122.480988,287.980530 122.480988,279.777374 
	C126.939461,279.777374 131.072983,279.391724 135.100662,279.879639 
	C139.646545,280.430298 142.087891,283.453674 142.024918,288.168030 
	C141.967560,292.460358 139.156891,295.400513 134.473465,295.920074 
	C132.518600,296.136963 130.519608,295.956085 128.074722,295.956085 
	C128.074722,298.987244 128.074722,301.724854 128.074722,305.013672 
	C126.017876,304.893738 124.446877,304.802155 122.678436,304.304871 
M127.936707,285.624939 
	C127.936707,287.557739 127.936707,289.490540 127.936707,291.725647 
	C129.738358,291.725647 131.253616,292.161499 132.247803,291.627411 
	C133.895248,290.742340 135.207321,289.233002 136.660706,287.986694 
	C135.149109,286.632690 133.811737,284.924713 132.058441,284.061859 
	C131.059540,283.570282 129.381607,284.458527 127.936707,285.624939 
z"/>
<path fill="#CDCDCD" opacity="1.000000" stroke="none" 
	d="
M148.955017,303.343323 
	C151.614212,296.087555 154.063309,289.194611 156.851044,282.441467 
	C157.388489,281.139557 159.180298,279.741730 160.528397,279.590424 
	C161.531982,279.477783 163.300903,281.087250 163.787903,282.305817 
	C166.681442,289.546143 169.300751,296.896057 172.043289,304.293030 
	C167.430862,306.686249 165.898102,303.883209 164.844086,300.048584 
	C160.614349,300.431641 155.085342,297.279083 153.893906,305.556061 
	C152.037094,304.891296 150.449997,304.323090 148.955017,303.343323 
M161.885834,290.781006 
	C161.440674,289.671631 160.995499,288.562256 160.164459,286.491241 
	C159.091568,289.892029 158.307037,292.378754 157.345001,295.428192 
	C159.780472,295.297028 161.304733,295.214935 163.190369,295.113373 
	C162.718140,293.613007 162.387085,292.561157 161.885834,290.781006 
z"/>
<path fill="#C8C8C8" opacity="1.000000" stroke="none" 
	d="
M361.973175,301.938599 
	C358.534241,296.848969 358.416199,291.649689 359.996277,286.361694 
	C361.463806,281.450287 365.517120,278.791046 370.575897,279.070312 
	C375.806854,279.359100 378.582581,281.913330 380.222504,289.468140 
	C377.436279,287.765228 375.786591,286.586060 373.989532,285.708832 
	C372.337738,284.902496 370.421783,283.749603 368.818695,284.001282 
	C367.441620,284.217438 365.504456,286.068390 365.287354,287.431030 
	C364.773499,290.656158 364.776917,294.080292 365.312164,297.300812 
	C365.538269,298.661255 367.528412,300.520813 368.899292,300.692078 
	C370.503693,300.892517 372.370239,299.619904 374.007019,298.764282 
	C375.721710,297.867950 377.298706,296.708252 378.935913,295.663666 
	C379.542664,296.362122 380.149384,297.060547 380.756134,297.759003 
	C378.722137,299.992493 377.086273,303.029724 374.564636,304.278839 
	C370.355713,306.363708 365.827118,305.921661 361.973175,301.938599 
z"/>
<path fill="#4F9FCC" opacity="1.000000" stroke="none" 
	d="
M244.996796,179.838486 
	C250.695572,179.757599 256.394348,179.676712 262.600220,180.057220 
	C267.614624,184.137802 272.182220,187.685638 276.597870,191.413422 
	C278.230164,192.791412 279.505066,194.592758 280.942932,196.201035 
	C275.267334,196.280930 269.591766,196.360825 263.432098,195.996002 
	C260.304108,193.248535 257.655334,190.951355 255.017548,188.641586 
	C251.672607,185.712585 248.336639,182.773315 244.996796,179.838486 
z"/>
<path fill="#4F9FCC" opacity="1.000000" stroke="none" 
	d="
M294.514648,200.291885 
	C297.791260,202.998276 300.501373,205.754028 303.456146,208.216125 
	C306.809113,211.010010 310.381134,213.541046 313.919800,216.517181 
	C308.627106,216.890228 303.272522,216.932465 297.454163,216.903397 
	C292.879883,213.489380 288.707642,210.218781 284.684875,206.773651 
	C282.657593,205.037491 280.901398,202.984818 278.998962,200.734406 
	C284.002289,200.332886 289.029205,200.272232 294.514648,200.291885 
z"/>
<path fill="#3C96C5" opacity="1.000000" stroke="none" 
	d="
M281.395020,196.339432 
	C279.505066,194.592758 278.230164,192.791412 276.597870,191.413422 
	C272.182220,187.685638 267.614624,184.137802 263.059082,180.162918 
	C268.037811,179.725769 273.064697,179.644318 278.612946,180.023117 
	C283.583466,183.882401 288.133423,187.160339 292.433838,190.738174 
	C294.233063,192.235062 295.502594,194.368561 297.012970,196.212616 
	C291.957672,196.301025 286.902405,196.389435 281.395020,196.339432 
z"/>
<path fill="#5FA0C9" opacity="1.000000" stroke="none" 
	d="
M244.546585,179.721191 
	C248.336639,182.773315 251.672607,185.712585 255.017548,188.641586 
	C257.655334,190.951355 260.304108,193.248535 262.985168,195.861954 
	C257.635712,196.263321 252.249100,196.354019 246.409363,196.310730 
	C245.022629,194.945923 244.301559,193.434830 243.116196,192.536057 
	C239.312714,189.652161 235.337555,186.994690 231.119232,184.086121 
	C231.572281,180.049316 234.173767,179.158463 237.706390,179.494202 
	C239.820770,179.695160 241.965363,179.578049 244.546585,179.721191 
z"/>
<path fill="#2399D1" opacity="1.000000" stroke="none" 
	d="
M297.463593,196.335159 
	C295.502594,194.368561 294.233063,192.235062 292.433838,190.738174 
	C288.133423,187.160339 283.583466,183.882401 279.068176,180.139069 
	C284.006775,179.719727 289.011536,179.644684 294.635590,179.966949 
	C300.469208,184.320297 305.739746,188.205780 310.858063,192.282349 
	C312.127777,193.293610 312.904572,194.923782 313.907928,196.269455 
	C308.576691,196.332199 303.245453,196.394958 297.463593,196.335159 
z"/>
<path fill="#1E86B7" opacity="1.000000" stroke="none" 
	d="
M314.323608,196.409851 
	C312.904572,194.923782 312.127777,193.293610 310.858063,192.282349 
	C305.739746,188.205780 300.469208,184.320297 295.091675,180.051727 
	C300.237885,179.607376 305.551544,179.314758 310.853882,179.453918 
	C312.222534,179.489822 314.147003,180.549072 314.799988,181.709854 
	C317.290802,186.137787 319.366577,190.799179 322.171295,196.550232 
	C318.839172,196.550232 316.789215,196.550232 314.323608,196.409851 
z"/>
<path fill="#89A3C1" opacity="1.000000" stroke="none" 
	d="
M217.836441,203.938538 
	C218.504776,200.798126 220.405502,199.602188 223.597702,199.955765 
	C225.737457,200.192780 227.922882,200.017548 230.611237,200.423065 
	C236.172760,204.240112 241.210907,207.660828 246.249054,211.081543 
	C244.793503,216.579834 240.945175,217.865997 235.361740,216.577118 
	C229.185410,212.094910 223.510925,208.016724 217.836441,203.938538 
z"/>
<path fill="#A8A2B6" opacity="1.000000" stroke="none" 
	d="
M243.976562,237.196304 
	C240.685913,237.306961 237.345993,237.799759 234.123215,237.384140 
	C232.206284,237.136932 229.666031,235.902191 228.813095,234.342117 
	C226.470306,230.057144 223.565796,230.012756 219.399628,231.704956 
	C214.905411,228.276978 210.866165,225.099030 206.826904,221.921082 
	C212.603638,219.430511 216.725632,220.385818 219.633362,224.889069 
	C222.131454,228.757889 225.336838,228.550415 228.720673,224.429642 
	C232.877869,227.336380 236.722717,230.047821 240.383514,232.988403 
	C241.796326,234.123230 242.791245,235.778275 243.976562,237.196304 
z"/>
<path fill="#C8C8C8" opacity="1.000000" stroke="none" 
	d="
M314.999207,298.882812 
	C314.999207,301.158325 314.999207,302.952026 314.999207,304.888824 
	C313.104279,304.888824 311.652313,304.888824 309.814667,304.888824 
	C309.814667,298.036316 309.814667,291.290009 309.814667,284.160614 
	C307.186218,284.021667 304.918152,283.901794 302.297302,283.763245 
	C302.297302,282.362183 302.297302,281.039032 302.297302,279.357971 
	C308.315094,279.357971 314.118530,279.193298 319.897980,279.492554 
	C321.099274,279.554779 322.211578,281.335876 323.364899,282.324860 
	C323.049103,282.789703 322.733307,283.254578 322.417511,283.719452 
	C320.132324,283.831421 317.847168,283.943420 314.999207,284.083008 
	C314.999207,288.860626 314.999207,293.630829 314.999207,298.882812 
z"/>
<path fill="#9DA4BD" opacity="1.000000" stroke="none" 
	d="
M244.425934,237.327057 
	C242.791245,235.778275 241.796326,234.123230 240.383514,232.988403 
	C236.722717,230.047821 232.877869,227.336380 229.023346,224.194397 
	C230.512802,222.848602 231.970856,221.455536 233.690765,220.945526 
	C235.359833,220.450577 237.297729,220.862228 239.560394,220.962341 
	C243.516739,224.139999 247.013992,227.249817 250.549347,230.315704 
	C252.987152,232.429749 255.477722,234.482971 257.980591,236.875427 
	C253.636063,237.277603 249.255692,237.367706 244.425934,237.327057 
z"/>
<path fill="#9DA4BD" opacity="1.000000" stroke="none" 
	d="
M256.996155,241.381531 
	C261.354126,241.324295 265.712067,241.267044 270.547546,241.638077 
	C274.151154,244.789032 277.331116,247.453049 280.384033,250.255417 
	C282.354462,252.064102 284.138702,254.075592 286.006409,255.996185 
	C282.616211,256.650085 279.226013,257.303955 275.349274,257.571533 
	C270.070068,253.554169 265.186188,250.034561 260.537323,246.227905 
	C259.038849,245.000900 258.158997,243.018417 256.996155,241.381531 
z"/>
<path fill="#89A3C1" opacity="1.000000" stroke="none" 
	d="
M286.388672,256.022644 
	C284.138702,254.075592 282.354462,252.064102 280.384033,250.255417 
	C277.331116,247.453049 274.151154,244.789032 271.003693,241.726517 
	C276.334015,241.323364 281.685760,241.260071 287.532318,241.596466 
	C289.200317,243.293243 290.265778,244.712952 291.571259,245.859375 
	C293.656342,247.690430 295.900909,249.339874 298.078033,251.066101 
	C294.309021,252.727097 290.539978,254.388107 286.388672,256.022644 
z"/>
<path fill="#5B8AAB" opacity="1.000000" stroke="none" 
	d="
M305.311279,237.408752 
	C303.739044,235.806808 302.816101,234.066772 301.402618,232.944626 
	C296.477356,229.034546 291.382294,225.338364 286.167847,221.279648 
	C290.067261,220.928619 294.150604,220.858826 298.662048,221.237946 
	C304.729675,225.459412 310.369171,229.231934 316.008698,233.004456 
	C314.284180,238.359268 310.001770,237.938187 305.311279,237.408752 
z"/>
<path fill="#77A0C2" opacity="1.000000" stroke="none" 
	d="
M246.576965,210.913162 
	C241.210907,207.660828 236.172760,204.240112 231.064087,200.490356 
	C233.295807,200.105240 235.620575,200.231857 237.895203,199.951584 
	C241.602829,199.494690 244.047577,200.591812 245.668503,204.219315 
	C247.407974,208.112076 250.318771,208.205627 253.711151,205.225830 
	C258.633362,208.719238 263.256348,212.448898 267.946472,216.510315 
	C265.542053,216.896469 263.050110,216.772339 260.604004,217.050674 
	C257.572693,217.395569 255.562714,216.432831 254.468201,213.515762 
	C253.043030,209.717407 250.242050,209.443787 246.576965,210.913162 
z"/>
<path fill="#A8A2B6" opacity="1.000000" stroke="none" 
	d="
M256.543549,241.289948 
	C258.158997,243.018417 259.038849,245.000900 260.537323,246.227905 
	C265.186188,250.034561 270.070068,253.554169 274.930481,257.514801 
	C271.299408,257.893921 267.600616,257.943420 263.445160,257.919250 
	C260.187958,255.480759 257.347931,253.160767 254.597046,250.739471 
	C251.362900,247.892807 248.206100,244.958282 244.994446,241.720200 
	C248.679062,241.318481 252.384995,241.258423 256.543549,241.289948 
z"/>
<path fill="#3C96C5" opacity="1.000000" stroke="none" 
	d="
M251.469711,165.053894 
	C256.199646,168.244873 260.597046,171.601532 265.022491,175.301147 
	C262.748413,175.719406 260.364227,176.194855 258.169647,175.745117 
	C256.369598,175.376221 254.034409,174.304886 253.271072,172.846390 
	C251.394882,169.261581 249.018661,168.137955 244.692932,169.673218 
	C239.710571,166.916183 235.353104,163.952377 230.995636,160.988556 
	C234.315521,157.598572 241.095490,158.037567 243.196548,162.040070 
	C245.050461,165.571823 247.398941,166.876541 251.469711,165.053894 
z"/>
<path fill="#B7A4B6" opacity="1.000000" stroke="none" 
	d="
M206.523590,222.089233 
	C210.866165,225.099030 214.905411,228.276978 219.009338,231.807831 
	C217.800034,233.950943 216.642151,237.131546 215.228531,237.249588 
	C212.023453,237.517227 208.442993,238.997910 205.535278,234.746277 
	C202.207642,229.880585 203.654846,226.280640 206.523590,222.089233 
z"/>
<path fill="#4F9FCC" opacity="1.000000" stroke="none" 
	d="
M316.240967,232.749908 
	C310.369171,229.231934 304.729675,225.459412 299.046326,221.340790 
	C306.138123,220.994690 313.273712,220.994690 321.483002,220.994690 
	C319.669434,225.158005 318.071350,228.826675 316.240967,232.749908 
z"/>
<path fill="#4F9FCC" opacity="1.000000" stroke="none" 
	d="
M230.727814,161.198242 
	C235.353104,163.952377 239.710571,166.916183 244.398651,169.947159 
	C242.821915,171.948456 243.241898,176.236908 239.030792,175.815109 
	C235.820114,175.493500 232.505936,176.974869 229.842239,172.887939 
	C226.917633,168.400696 227.482864,165.086609 230.727814,161.198242 
z"/>
<path fill="#9DA4BD" opacity="1.000000" stroke="none" 
	d="
M217.561066,204.134125 
	C223.510925,208.016724 229.185410,212.094910 234.923676,216.503616 
	C231.994781,216.889481 228.914963,216.510696 226.027527,217.090332 
	C219.985718,218.303162 217.481369,214.594543 215.955566,210.040466 
	C215.426910,208.462570 216.787827,206.251556 217.561066,204.134125 
z"/>
<path fill="#B7A4B6" opacity="1.000000" stroke="none" 
	d="
M195.157852,213.340027 
	C193.717651,214.563507 192.335358,216.721848 190.825150,216.815384 
	C187.702789,217.008774 184.003372,218.491409 181.807449,214.018066 
	C180.151749,210.645218 178.065857,207.763321 181.812592,204.149658 
	C186.689835,207.132294 190.923843,210.236160 195.157852,213.340027 
z"/>
<path fill="#5B8AAB" opacity="1.000000" stroke="none" 
	d="
M298.419495,251.019058 
	C295.900909,249.339874 293.656342,247.690430 291.571259,245.859375 
	C290.265778,244.712952 289.200317,243.293243 287.993774,241.657257 
	C295.033661,241.318344 302.106964,241.318344 309.180267,241.318344 
	C309.399200,241.663696 309.618164,242.009033 309.837128,242.354385 
	C306.145050,245.226929 302.452972,248.099487 298.419495,251.019058 
z"/>
<path fill="#A8A2B6" opacity="1.000000" stroke="none" 
	d="
M195.451736,213.134308 
	C190.923843,210.236160 186.689835,207.132294 182.094116,203.958923 
	C182.515121,201.256287 183.876328,199.574448 187.031540,199.945938 
	C190.127380,200.310471 193.435318,199.039154 195.391251,203.244080 
	C196.978607,206.656601 198.988327,209.547836 195.451736,213.134308 
z"/>
<path fill="#000000" opacity="1.000000" stroke="none" 
	d="
M192.157471,290.307434 
	C189.759232,290.870544 187.690414,291.140686 185.311707,291.451294 
	C185.311707,288.798615 185.311707,286.583862 185.311707,284.380341 
	C192.726257,283.363098 193.802673,284.223145 192.157471,290.307434 
z"/>
<path fill="#000000" opacity="1.000000" stroke="none" 
	d="
M340.106750,295.363831 
	C337.915985,293.446472 337.915985,293.446472 340.327545,287.533051 
	C343.649231,293.049347 343.680878,294.206024 340.106750,295.363831 
z"/>
<path fill="#000000" opacity="1.000000" stroke="none" 
	d="
M127.973068,285.175171 
	C129.381607,284.458527 131.059540,283.570282 132.058441,284.061859 
	C133.811737,284.924713 135.149109,286.632690 136.660706,287.986694 
	C135.207321,289.233002 133.895248,290.742340 132.247803,291.627411 
	C131.253616,292.161499 129.738358,291.725647 127.936707,291.725647 
	C127.936707,289.490540 127.936707,287.557739 127.973068,285.175171 
z"/>
<path fill="#000000" opacity="1.000000" stroke="none" 
	d="
M161.970947,291.145172 
	C162.387085,292.561157 162.718140,293.613007 163.190369,295.113373 
	C161.304733,295.214935 159.780472,295.297028 157.345001,295.428192 
	C158.307037,292.378754 159.091568,289.892029 160.164459,286.491241 
	C160.995499,288.562256 161.440674,289.671631 161.970947,291.145172 
z"/>
</svg>