<svg version="1.1" id="Layer_1" xmlns="http://www.w3.org/2000/svg" xmlns:xlink="http://www.w3.org/1999/xlink" x="0px" y="0px"
	 width="100%" viewBox="0 0 500 500" enable-background="new 0 0 500 500" xml:space="preserve">
<path fill="#000000" opacity="1.000000" stroke="none" 
	d="
M501.000000,231.000000 
	C501.000000,244.354233 501.000000,257.708466 500.614197,271.680573 
	C497.490204,287.317383 495.786926,302.613831 491.846191,317.310303 
	C465.855530,414.239014 382.352478,485.247803 286.818787,498.262665 
	C281.192627,499.029144 275.605377,500.080963 270.000000,501.000000 
	C256.979095,501.000000 243.958206,501.000000 230.310654,500.619446 
	C220.967529,498.981903 212.179276,498.092407 203.546616,496.406372 
	C158.498917,487.608032 118.663383,468.021484 84.551971,437.323181 
	C39.905849,397.144196 12.911480,347.257294 3.784817,287.797119 
	C2.973811,282.513428 1.933700,277.264862 0.999998,272.000000 
	C1.000000,258.312439 1.000000,244.624878 1.385815,230.319427 
	C2.570178,223.435654 3.126431,217.127747 4.204561,210.910370 
	C15.623752,145.057938 47.793446,91.604317 100.988922,51.198742 
	C132.978775,26.900269 168.953949,11.196400 208.776520,4.735039 
	C216.191162,3.531990 223.592514,2.247115 231.000000,1.000000 
	C243.687561,1.000000 256.375122,1.000000 269.699646,1.387222 
	C290.750610,3.607242 310.912476,6.828271 330.211182,13.976015 
	C424.632324,48.947174 480.949219,115.823982 498.339691,215.189941 
	C499.260956,220.453934 500.114777,225.729706 501.000000,231.000000 
M195.733658,212.944122 
	C199.264801,209.324829 197.127930,206.154053 195.044388,202.871201 
	C192.351059,198.627579 184.915558,198.661530 181.775116,203.557404 
	C178.249893,207.086441 179.741592,210.241318 181.790771,214.054810 
	C184.135513,218.418381 187.706604,216.997284 190.819687,216.814987 
	C192.322937,216.726959 193.705414,214.576233 195.733658,212.944122 
M230.451080,161.412643 
	C227.487640,165.092285 226.900208,168.400864 229.839783,172.890060 
	C232.511169,176.969650 235.821762,175.504974 239.036301,175.820709 
	C243.240326,176.233627 242.821808,171.947830 245.314301,169.463135 
	C249.010468,168.135315 251.393158,169.233475 253.260284,172.837418 
	C254.017288,174.298615 256.354187,175.380569 258.153839,175.749863 
	C260.345184,176.199509 262.727966,175.715988 265.938965,175.804993 
	C270.294281,175.743134 274.649567,175.681274 279.918610,175.806854 
	C284.607666,175.750153 289.296692,175.693466 294.903137,175.823273 
	C299.658112,175.823273 304.413086,175.823273 310.368103,175.823273 
	C300.628174,165.658951 290.030151,160.053665 276.074005,159.132385 
	C271.049194,159.142609 266.024353,159.152817 260.175446,159.028458 
	C255.349884,158.098557 252.946487,160.618912 251.121490,165.241837 
	C247.370728,166.906250 245.045761,165.566269 243.196442,162.036774 
	C241.098572,158.032974 234.269272,157.600754 230.451080,161.412643 
M208.730377,220.933853 
	C206.837769,223.924118 203.530365,226.894989 203.489014,229.910629 
	C203.454391,232.436432 206.810669,236.440781 209.429733,237.219269 
	C212.939346,238.262451 218.482483,239.480225 219.253006,232.621811 
	C219.321198,232.014725 220.339828,231.514404 221.763550,230.879990 
	C224.317230,230.890686 227.068832,230.227417 228.241348,233.683624 
	C229.452652,237.254242 232.088654,238.261368 236.426620,237.490173 
	C243.273849,237.386047 250.121063,237.281906 257.857788,237.472610 
	C261.892761,237.371490 265.927765,237.270386 270.843353,237.467117 
	C274.214294,237.371979 277.585266,237.276825 281.825317,237.482407 
	C285.569916,237.383118 289.314545,237.283844 293.966766,237.402969 
	C299.331177,237.354218 304.695557,237.305466 310.647766,237.527191 
	C311.825745,236.717529 313.003754,235.907852 314.808380,234.826187 
	C317.038361,230.429703 319.268311,226.033234 321.824799,220.992981 
	C312.241821,220.992981 304.124115,220.992981 295.444061,220.792877 
	C294.296173,220.861481 293.148315,220.930069 291.072418,220.870804 
	C285.716370,220.929855 280.360352,220.988907 274.100189,220.875351 
	C270.731262,220.934906 267.362366,220.994446 263.085876,220.884857 
	C259.389557,220.943604 255.693222,221.002335 251.090118,220.884567 
	C247.392624,220.941956 243.695145,220.999344 239.113831,220.879913 
	C237.295166,220.866669 235.358948,220.456299 233.690445,220.950241 
	C231.971832,221.459030 230.514130,222.849030 228.336105,224.318161 
	C225.710342,228.018387 221.705231,228.917694 220.291779,225.731140 
	C217.946243,220.443146 214.115494,220.227020 208.730377,220.933853 
M183.733017,242.576569 
	C182.641830,245.459198 180.218292,248.621170 180.751251,251.163300 
	C181.707550,255.724777 184.651443,259.118500 190.629974,258.137054 
	C194.984344,257.422211 199.533539,257.894043 204.804993,257.985870 
	C210.540955,259.277679 211.102127,254.227631 214.017410,251.182510 
	C215.986786,251.965775 218.968018,252.210648 219.727356,253.637756 
	C221.659714,257.269531 224.120346,258.549774 228.021744,258.061462 
	C230.321518,257.773621 232.673752,257.904816 235.925140,257.986511 
	C240.613861,257.936829 245.302567,257.887146 250.908203,257.988068 
	C254.935425,257.940399 258.962646,257.892731 263.902740,257.992279 
	C267.601288,257.942841 271.299805,257.893372 275.833649,257.957672 
	C279.555542,257.256317 283.277435,256.554962 287.730194,255.873428 
	C292.177887,253.633240 296.625580,251.393051 301.739197,248.993729 
	C304.406006,246.690598 307.072815,244.387482 310.587891,241.351791 
	C304.763885,241.351791 300.356354,241.351791 295.029572,241.204468 
	C287.350891,241.265930 279.672241,241.327408 271.077820,241.208206 
	C266.385376,241.266235 261.692902,241.324249 256.095123,241.196243 
	C252.388809,241.257248 248.682480,241.318268 244.068253,241.201035 
	C240.037888,241.264038 236.007507,241.327057 231.105728,241.210419 
	C227.600952,242.091492 222.587631,238.582108 220.273987,245.157486 
	C217.413589,249.125977 213.713455,249.364655 211.787491,245.263992 
	C209.811905,241.057770 206.838287,240.542694 202.046890,241.209946 
	C196.704453,241.258636 191.362030,241.307327 185.466934,241.173187 
	C185.048828,241.465363 184.630737,241.757523 183.733017,242.576569 
M208.804031,181.561295 
	C207.751648,184.035278 205.536987,186.683655 205.876862,188.948730 
	C206.711243,194.509598 210.300812,196.342087 215.920471,196.723038 
	C221.161392,197.078323 221.071533,192.631424 223.915634,189.834579 
	C227.477646,188.884201 229.641449,190.213974 231.401794,193.486618 
	C232.185516,194.943619 234.507751,196.121994 236.280792,196.372849 
	C239.137527,196.777039 242.117752,196.308304 245.930145,196.488144 
	C251.627823,196.382965 257.325500,196.277771 263.903381,196.476791 
	C269.582489,196.385056 275.261627,196.293335 281.834351,196.514801 
	C286.907288,196.411194 291.980255,196.307587 297.936951,196.484955 
	C304.590210,196.409897 311.243500,196.334839 318.606995,196.571701 
	C321.343292,196.909546 321.349060,195.368668 320.529877,193.561417 
	C318.693665,189.510376 316.877838,185.436539 314.738068,181.545547 
	C314.153229,180.482101 312.467590,179.448792 311.255249,179.410477 
	C307.155334,179.280899 303.041138,179.604202 298.012482,179.613068 
	C291.668030,179.679367 285.323608,179.745682 278.069763,179.602371 
	C273.384583,179.673141 268.699402,179.743927 263.090820,179.626083 
	C257.059387,179.698380 251.027969,179.770676 244.091232,179.631943 
	C241.658325,179.612198 239.207062,179.773453 236.796951,179.528976 
	C233.442673,179.188721 231.585297,180.599228 230.254364,184.248672 
	C226.592880,187.661392 224.394073,187.402695 221.862686,183.261398 
	C219.112854,178.762726 213.794647,177.814407 208.804031,181.561295 
M268.921173,216.979630 
	C273.613007,216.930740 278.304810,216.881851 283.916718,216.975266 
	C288.275452,216.927322 292.634186,216.879379 297.920532,216.974548 
	C303.940369,216.931900 309.960236,216.889267 316.834808,216.993637 
	C318.461121,216.993637 320.087433,216.993637 322.213074,216.993637 
	C322.213074,211.273300 322.213074,205.926804 322.213074,200.374344 
	C313.775452,200.374344 305.867767,200.374344 297.043274,200.207138 
	C291.026459,200.269714 285.009674,200.332291 278.080902,200.210815 
	C273.720215,200.271683 269.359558,200.332535 264.132751,200.209778 
	C260.005646,200.218689 255.210068,198.816101 253.407104,205.464188 
	C250.317505,208.202744 247.413071,208.119141 245.670914,204.223022 
	C244.052353,200.603241 241.611008,199.465515 237.902603,199.958298 
	C235.957825,200.216721 233.964035,200.106445 231.077957,200.027695 
	C228.579590,200.018448 226.060959,200.205887 223.587921,199.950943 
	C220.384979,199.620728 218.506805,200.818649 217.275589,204.334961 
	C216.778671,206.258224 215.419525,208.469879 215.948074,210.050186 
	C217.474167,214.612991 219.995270,218.304779 226.032867,217.094864 
	C228.922684,216.515762 232.004166,216.893051 235.866470,216.980667 
	C240.928284,217.843735 244.802124,216.614548 246.897598,210.748840 
	C250.542343,209.242462 252.912262,210.253586 254.890381,213.823166 
	C255.746948,215.368896 258.201111,216.509384 260.112183,216.872253 
	C262.647339,217.353592 265.361206,216.893707 268.921173,216.979630 
M179.800171,296.465393 
	C179.800171,299.234283 179.800171,302.003204 179.800171,305.079132 
	C181.929794,304.957397 183.465775,304.869598 185.306534,304.764343 
	C185.306534,301.496429 185.306534,298.745636 185.306534,296.183105 
	C190.403488,294.595581 190.732727,298.786743 191.924255,301.334930 
	C193.523865,304.755859 195.535767,306.068817 199.339233,304.324890 
	C197.684433,301.032959 196.068954,297.819244 194.443741,294.586182 
	C197.975693,291.930176 199.735519,288.818878 198.220612,284.529907 
	C196.724213,280.293274 193.095078,279.664307 189.362686,279.447296 
	C186.281509,279.268127 183.181625,279.410675 179.800156,279.410675 
	C179.800156,285.195343 179.800156,290.334656 179.800171,296.465393 
M402.141937,294.362305 
	C399.931824,292.049347 400.001526,289.989441 402.324219,287.612793 
	C404.551636,285.333649 406.343292,282.628693 408.526794,279.856476 
	C399.527985,277.352386 399.122772,286.360382 393.905457,289.168793 
	C393.752838,285.827240 393.614258,282.793518 393.456635,279.342651 
	C391.477570,279.455719 389.924927,279.544403 388.443848,279.628998 
	C388.443848,288.360260 388.443848,296.594757 388.443848,305.124298 
	C390.366211,304.969360 391.930481,304.843292 393.003448,304.756836 
	C393.767212,301.264618 394.409454,298.327942 395.154755,294.920135 
	C400.367920,298.691223 400.254944,307.224579 408.821014,304.556030 
	C406.692474,301.293976 404.623260,298.122803 402.141937,294.362305 
M220.541351,292.685852 
	C220.892563,291.111786 220.853500,289.285614 221.674393,288.014984 
	C223.509247,285.174927 225.772781,282.611847 228.004990,279.752319 
	C218.886673,277.445068 218.390656,286.743683 212.841034,289.857697 
	C212.841034,286.154175 212.841034,282.919769 212.841034,279.412140 
	C211.009277,279.492828 209.601425,279.554840 208.027344,279.624176 
	C208.027344,288.178101 208.027344,296.405640 208.027344,304.719879 
	C209.810776,304.719879 211.362106,304.719879 212.308319,304.719879 
	C213.129837,301.289490 213.850616,298.279724 214.671356,294.852600 
	C219.914017,298.526520 219.581299,307.209961 228.281845,304.535339 
	C225.795242,300.720917 223.378174,297.013153 220.541351,292.685852 
M235.580551,284.231293 
	C235.751907,285.980743 235.261169,288.456573 236.225739,289.335785 
	C238.588333,291.489227 241.678497,292.823608 244.365082,294.650543 
	C245.891693,295.688660 247.268051,296.986481 248.499725,298.358063 
	C248.619812,298.491821 247.212357,300.712921 246.565002,300.687073 
	C244.559570,300.606964 242.479599,300.150665 240.616226,299.384155 
	C238.739059,298.612030 237.086624,297.293610 234.316238,295.586243 
	C235.847610,303.821899 241.742386,307.201813 248.609619,304.738159 
	C250.741150,303.973419 253.253159,301.500183 253.646835,299.438049 
	C254.041672,297.369659 252.523758,294.345856 250.896698,292.649597 
	C249.305237,290.990479 246.436478,290.622986 244.286530,289.408600 
	C242.964264,288.661713 241.808136,287.487091 240.896896,286.266113 
	C240.727493,286.039154 242.040710,284.011230 242.736496,283.971039 
	C244.417374,283.873901 246.220520,284.236603 247.820755,284.828918 
	C249.733521,285.536987 251.486328,286.677185 254.133026,288.061493 
	C253.575027,282.245636 250.885300,280.180176 247.237732,279.430634 
	C242.739899,278.506378 238.612030,279.257355 235.580551,284.231293 
M288.796265,300.043793 
	C286.391815,299.844025 283.886139,299.993988 281.614105,299.336609 
	C279.711060,298.785980 278.080902,297.292389 275.559357,295.742767 
	C275.617981,301.553070 278.197357,304.325104 281.751740,304.648743 
	C285.451660,304.985687 289.784790,304.468903 292.970337,302.730164 
	C296.531921,300.786194 295.757385,295.186157 292.015289,292.590637 
	C290.013794,291.202393 287.462311,290.633698 285.312622,289.422607 
	C283.987549,288.676117 282.817566,287.516846 281.902832,286.298920 
	C281.726440,286.064056 283.014557,284.028748 283.703308,283.983459 
	C285.385223,283.872894 287.200378,284.203491 288.797577,284.797913 
	C290.717224,285.512360 292.466736,286.684052 295.310883,288.203094 
	C293.169617,279.678406 285.830475,276.899109 279.646423,280.669922 
	C275.318176,283.309052 274.818878,288.327362 278.890533,291.400787 
	C280.954773,292.958893 283.796417,293.466797 285.933167,294.956421 
	C287.377747,295.963531 288.206146,297.854523 288.796265,300.043793 
M102.769417,283.824615 
	C104.467117,284.150848 106.242630,284.266510 107.842384,284.857758 
	C109.748497,285.562195 111.503853,286.674500 114.360756,288.142609 
	C112.188820,280.126404 106.593506,277.211700 100.452957,280.045502 
	C98.254272,281.060211 95.797340,283.749176 95.490456,285.956482 
	C95.221756,287.889130 97.392326,290.711395 99.234100,292.236450 
	C101.183266,293.850464 104.111580,294.223663 106.419357,295.490234 
	C107.406410,296.031952 108.349174,297.414856 108.468071,298.507385 
	C108.545799,299.221619 107.105461,300.775177 106.348824,300.772797 
	C104.486870,300.766907 102.519165,300.333099 100.794960,299.599182 
	C98.843475,298.768555 97.111214,297.422882 95.283630,296.301147 
	C96.058281,303.779266 100.956558,306.794922 107.830841,304.865692 
	C110.146591,304.215790 113.231071,301.761200 113.553505,299.745789 
	C113.925179,297.422607 112.169159,294.148224 110.334747,292.261505 
	C108.633865,290.512146 105.588402,290.098572 103.177719,289.002869 
	C100.799896,287.922028 99.667831,286.425568 102.769417,283.824615 
M142.007660,286.787140 
	C139.728348,279.741943 132.439682,277.259796 122.737595,280.178650 
	C122.737595,288.400757 122.737595,296.596710 122.737595,305.110138 
	C124.657326,304.968079 126.208038,304.853302 128.189606,304.706665 
	C128.189606,301.575623 128.189606,298.854095 128.189606,296.171906 
	C139.346039,295.771057 141.209335,294.578979 142.007660,286.787140 
M331.847443,296.255219 
	C330.812378,299.011108 329.777313,301.767029 328.620850,304.846191 
	C330.758026,304.846191 332.381012,304.846191 334.090912,304.846191 
	C334.841858,303.171387 335.564362,301.559998 336.323486,299.866913 
	C340.680847,300.318451 346.052429,297.668640 346.859589,304.839844 
	C348.743774,304.839844 350.370392,304.839844 352.468842,304.839844 
	C349.485291,296.766113 346.706177,288.974091 343.640747,281.296356 
	C343.260406,280.343719 341.300354,279.421600 340.178833,279.535400 
	C339.077148,279.647247 337.636139,280.895447 337.169281,281.995300 
	C335.289978,286.422363 333.730225,290.985077 331.847443,296.255219 
M168.241913,294.176270 
	C166.702408,289.986359 165.303085,285.735443 163.525574,281.649078 
	C163.077164,280.618195 161.475479,279.652130 160.300507,279.510010 
	C159.331314,279.392792 157.591354,280.294525 157.252029,281.159973 
	C154.214828,288.906097 151.412399,296.744293 148.480637,304.719330 
	C151.817978,305.233185 154.218399,305.676392 155.267654,301.902863 
	C155.553406,300.875122 158.354965,300.030701 159.999741,300.034546 
	C161.838272,300.038818 164.962997,300.715881 165.281876,301.775848 
	C166.476440,305.746643 168.957626,305.298157 172.141754,304.679596 
	C170.930283,301.339050 169.758575,298.108124 168.241913,294.176270 
M364.558502,304.087555 
	C373.011444,307.110260 378.929169,304.238464 379.760559,295.123413 
	C377.289581,296.702972 375.717590,297.860016 374.008820,298.756378 
	C372.374023,299.614014 370.511749,300.892731 368.908691,300.695038 
	C367.538147,300.526031 365.545929,298.668365 365.318359,297.308319 
	C364.779968,294.090576 364.774170,290.668732 365.283936,287.444977 
	C365.499695,286.080658 367.427643,284.223816 368.802338,284.005096 
	C370.411560,283.749084 372.338348,284.886597 373.994690,285.692352 
	C375.792267,286.566742 377.437225,287.754974 379.148712,288.806366 
	C379.289398,282.543762 376.289276,279.822601 371.515259,279.188690 
	C366.832886,278.566986 363.018890,280.169006 360.731506,284.571533 
	C357.518036,290.756409 358.845123,298.779907 364.558502,304.087555 
M307.642639,283.931244 
	C308.298309,285.151062 309.476349,286.352417 309.520264,287.593811 
	C309.722778,293.325195 309.609619,299.067688 309.609619,304.855316 
	C311.699402,304.855316 313.141876,304.855316 315.114075,304.855316 
	C315.114075,297.803131 315.114075,290.911652 315.114075,284.075775 
	C317.932068,283.931580 320.217926,283.814636 322.503784,283.697662 
	C322.802460,283.311096 323.101166,282.924561 323.399841,282.537994 
	C322.369598,281.477417 321.382935,279.554321 320.301849,279.499695 
	C314.359955,279.199402 308.394928,279.356293 302.189087,279.356293 
	C302.189087,280.987915 302.189087,282.228668 302.189087,283.918945 
	C303.764923,283.918945 305.225220,283.918945 307.642639,283.931244 
z"/>
<path fill="#FEFEFE" opacity="1.000000" stroke="none" 
	d="
M501.000000,230.531342 
	C500.114777,225.729706 499.260956,220.453934 498.339691,215.189941 
	C480.949219,115.823982 424.632324,48.947174 330.211182,13.976015 
	C310.912476,6.828271 290.750610,3.607242 270.168304,1.387222 
	C346.926880,1.000000 423.853729,1.000000 501.000000,1.000000 
	C501.000000,77.354088 501.000000,153.708389 501.000000,230.531342 
z"/>
<path fill="#FEFEFE" opacity="1.000000" stroke="none" 
	d="
M270.468658,501.000000 
	C275.605377,500.080963 281.192627,499.029144 286.818787,498.262665 
	C382.352478,485.247803 465.855530,414.239014 491.846191,317.310303 
	C495.786926,302.613831 497.490204,287.317383 500.614197,272.149231 
	C501.000000,348.260681 501.000000,424.521393 501.000000,501.000000 
	C424.312592,501.000000 347.624939,501.000000 270.468658,501.000000 
z"/>
<path fill="#FEFEFE" opacity="1.000000" stroke="none" 
	d="
M230.531342,1.000000 
	C223.592514,2.247115 216.191162,3.531990 208.776520,4.735039 
	C168.953949,11.196400 132.978775,26.900269 100.988922,51.198742 
	C47.793446,91.604317 15.623752,145.057938 4.204561,210.910370 
	C3.126431,217.127747 2.570178,223.435654 1.385815,229.850769 
	C1.000000,153.739456 1.000000,77.478928 1.000000,1.000000 
	C77.354088,1.000000 153.708389,1.000000 230.531342,1.000000 
z"/>
<path fill="#FEFEFE" opacity="1.000000" stroke="none" 
	d="
M0.999998,272.468658 
	C1.933700,277.264862 2.973811,282.513428 3.784817,287.797119 
	C12.911480,347.257294 39.905849,397.144196 84.551971,437.323181 
	C118.663383,468.021484 158.498917,487.608032 203.546616,496.406372 
	C212.179276,498.092407 220.967529,498.981903 229.841995,500.619446 
	C153.739639,501.000000 77.479263,501.000000 1.000000,501.000000 
	C1.000000,424.979248 1.000000,348.958282 0.999998,272.468658 
z"/>
<path fill="#2E9CD2" opacity="1.000000" stroke="none" 
	d="
M278.979156,179.811981 
	C285.323608,179.745682 291.668030,179.679367 298.614502,180.008255 
	C304.442322,184.362534 309.722168,188.253510 314.855316,192.329269 
	C316.115143,193.329605 316.895813,194.933411 317.896759,196.259766 
	C311.243500,196.334839 304.590210,196.409897 297.461365,196.031281 
	C292.273102,191.884048 287.492798,188.272095 282.886017,184.450958 
	C281.354675,183.180771 280.268738,181.373642 278.979156,179.811981 
z"/>
<path fill="#CFCFCF" opacity="1.000000" stroke="none" 
	d="
M179.800171,295.969696 
	C179.800156,290.334656 179.800156,285.195343 179.800156,279.410675 
	C183.181625,279.410675 186.281509,279.268127 189.362686,279.447296 
	C193.095078,279.664307 196.724213,280.293274 198.220612,284.529907 
	C199.735519,288.818878 197.975693,291.930176 194.443741,294.586182 
	C196.068954,297.819244 197.684433,301.032959 199.339233,304.324890 
	C195.535767,306.068817 193.523865,304.755859 191.924255,301.334930 
	C190.732727,298.786743 190.403488,294.595581 185.306534,296.183105 
	C185.306534,298.745636 185.306534,301.496429 185.306534,304.764343 
	C183.465775,304.869598 181.929794,304.957397 179.800171,305.079132 
	C179.800171,302.003204 179.800171,299.234283 179.800171,295.969696 
M192.464462,285.072113 
	C190.194427,284.553101 187.924393,284.034088 185.267166,283.426514 
	C185.165375,285.321930 185.057709,286.436584 185.059097,287.551086 
	C185.060501,288.667633 185.170776,289.783997 185.230957,290.858429 
	C192.410629,291.623627 193.102768,291.152313 192.464462,285.072113 
z"/>
<path fill="#C8C8C8" opacity="1.000000" stroke="none" 
	d="
M402.347992,294.656982 
	C404.623260,298.122803 406.692474,301.293976 408.821014,304.556030 
	C400.254944,307.224579 400.367920,298.691223 395.154755,294.920135 
	C394.409454,298.327942 393.767212,301.264618 393.003448,304.756836 
	C391.930481,304.843292 390.366211,304.969360 388.443848,305.124298 
	C388.443848,296.594757 388.443848,288.360260 388.443848,279.628998 
	C389.924927,279.544403 391.477570,279.455719 393.456635,279.342651 
	C393.614258,282.793518 393.752838,285.827240 393.905457,289.168793 
	C399.122772,286.360382 399.527985,277.352386 408.526794,279.856476 
	C406.343292,282.628693 404.551636,285.333649 402.324219,287.612793 
	C400.001526,289.989441 399.931824,292.049347 402.347992,294.656982 
z"/>
<path fill="#4F9FCC" opacity="1.000000" stroke="none" 
	d="
M278.992859,200.394867 
	C285.009674,200.332291 291.026459,200.269714 297.516846,200.635849 
	C298.859039,202.153625 299.548218,203.483368 300.628448,204.288666 
	C304.582611,207.236557 308.736267,209.918549 312.663818,212.899551 
	C313.998810,213.912796 314.887451,215.514053 315.980072,216.846619 
	C309.960236,216.889267 303.940369,216.931900 297.413971,216.566345 
	C292.022644,212.373856 287.069031,208.673370 282.296478,204.752472 
	C280.926575,203.627014 280.079590,201.865005 278.992859,200.394867 
z"/>
<path fill="#CFCFCF" opacity="1.000000" stroke="none" 
	d="
M220.751221,292.995605 
	C223.378174,297.013153 225.795242,300.720917 228.281845,304.535339 
	C219.581299,307.209961 219.914017,298.526520 214.671356,294.852600 
	C213.850616,298.279724 213.129837,301.289490 212.308319,304.719879 
	C211.362106,304.719879 209.810776,304.719879 208.027344,304.719879 
	C208.027344,296.405640 208.027344,288.178101 208.027344,279.624176 
	C209.601425,279.554840 211.009277,279.492828 212.841034,279.412140 
	C212.841034,282.919769 212.841034,286.154175 212.841034,289.857697 
	C218.390656,286.743683 218.886673,277.445068 228.004990,279.752319 
	C225.772781,282.611847 223.509247,285.174927 221.674393,288.014984 
	C220.853500,289.285614 220.892563,291.111786 220.751221,292.995605 
z"/>
<path fill="#4F9FCC" opacity="1.000000" stroke="none" 
	d="
M244.996552,179.842957 
	C251.027969,179.770676 257.059387,179.698380 263.554413,180.098389 
	C265.078857,181.890366 265.927643,183.495483 267.242920,184.472748 
	C270.383881,186.806503 273.895111,188.654419 276.956512,191.077866 
	C278.604095,192.382156 279.632782,194.468262 280.940735,196.201599 
	C275.261627,196.293335 269.582489,196.385056 263.437744,196.012848 
	C261.290192,193.879669 259.703308,192.099319 257.907379,190.563461 
	C253.656616,186.928192 249.306503,183.409058 244.996552,179.842957 
z"/>
<path fill="#CDCDCD" opacity="1.000000" stroke="none" 
	d="
M235.729218,283.881714 
	C238.612030,279.257355 242.739899,278.506378 247.237732,279.430634 
	C250.885300,280.180176 253.575027,282.245636 254.133026,288.061493 
	C251.486328,286.677185 249.733521,285.536987 247.820755,284.828918 
	C246.220520,284.236603 244.417374,283.873901 242.736496,283.971039 
	C242.040710,284.011230 240.727493,286.039154 240.896896,286.266113 
	C241.808136,287.487091 242.964264,288.661713 244.286530,289.408600 
	C246.436478,290.622986 249.305237,290.990479 250.896698,292.649597 
	C252.523758,294.345856 254.041672,297.369659 253.646835,299.438049 
	C253.253159,301.500183 250.741150,303.973419 248.609619,304.738159 
	C241.742386,307.201813 235.847610,303.821899 234.316238,295.586243 
	C237.086624,297.293610 238.739059,298.612030 240.616226,299.384155 
	C242.479599,300.150665 244.559570,300.606964 246.565002,300.687073 
	C247.212357,300.712921 248.619812,298.491821 248.499725,298.358063 
	C247.268051,296.986481 245.891693,295.688660 244.365082,294.650543 
	C241.678497,292.823608 238.588333,291.489227 236.225739,289.335785 
	C235.261169,288.456573 235.751907,285.980743 235.729218,283.881714 
z"/>
<path fill="#CDCDCD" opacity="1.000000" stroke="none" 
	d="
M289.053223,299.696991 
	C288.206146,297.854523 287.377747,295.963531 285.933167,294.956421 
	C283.796417,293.466797 280.954773,292.958893 278.890533,291.400787 
	C274.818878,288.327362 275.318176,283.309052 279.646423,280.669922 
	C285.830475,276.899109 293.169617,279.678406 295.310883,288.203094 
	C292.466736,286.684052 290.717224,285.512360 288.797577,284.797913 
	C287.200378,284.203491 285.385223,283.872894 283.703308,283.983459 
	C283.014557,284.028748 281.726440,286.064056 281.902832,286.298920 
	C282.817566,287.516846 283.987549,288.676117 285.312622,289.422607 
	C287.462311,290.633698 290.013794,291.202393 292.015289,292.590637 
	C295.757385,295.186157 296.531921,300.786194 292.970337,302.730164 
	C289.784790,304.468903 285.451660,304.985687 281.751740,304.648743 
	C278.197357,304.325104 275.617981,301.553070 275.559357,295.742767 
	C278.080902,297.292389 279.711060,298.785980 281.614105,299.336609 
	C283.886139,299.993988 286.391815,299.844025 289.053223,299.696991 
z"/>
<path fill="#CDCDCD" opacity="1.000000" stroke="none" 
	d="
M102.358917,283.973511 
	C99.667831,286.425568 100.799896,287.922028 103.177719,289.002869 
	C105.588402,290.098572 108.633865,290.512146 110.334747,292.261505 
	C112.169159,294.148224 113.925179,297.422607 113.553505,299.745789 
	C113.231071,301.761200 110.146591,304.215790 107.830841,304.865692 
	C100.956558,306.794922 96.058281,303.779266 95.283630,296.301147 
	C97.111214,297.422882 98.843475,298.768555 100.794960,299.599182 
	C102.519165,300.333099 104.486870,300.766907 106.348824,300.772797 
	C107.105461,300.775177 108.545799,299.221619 108.468071,298.507385 
	C108.349174,297.414856 107.406410,296.031952 106.419357,295.490234 
	C104.111580,294.223663 101.183266,293.850464 99.234100,292.236450 
	C97.392326,290.711395 95.221756,287.889130 95.490456,285.956482 
	C95.797340,283.749176 98.254272,281.060211 100.452957,280.045502 
	C106.593506,277.211700 112.188820,280.126404 114.360756,288.142609 
	C111.503853,286.674500 109.748497,285.562195 107.842384,284.857758 
	C106.242630,284.266510 104.467117,284.150848 102.358917,283.973511 
z"/>
<path fill="#C8C8C8" opacity="1.000000" stroke="none" 
	d="
M142.021484,287.191345 
	C141.209335,294.578979 139.346039,295.771057 128.189606,296.171906 
	C128.189606,298.854095 128.189606,301.575623 128.189606,304.706665 
	C126.208038,304.853302 124.657326,304.968079 122.737595,305.110138 
	C122.737595,296.596710 122.737595,288.400757 122.737595,280.178650 
	C132.439682,277.259796 139.728348,279.741943 142.021484,287.191345 
M129.474426,283.933838 
	C128.817352,286.415375 128.160294,288.896912 127.340843,291.991760 
	C130.438812,291.702820 132.319733,291.816315 133.981201,291.266541 
	C135.015717,290.924164 136.320160,289.640381 136.419708,288.668152 
	C136.548264,287.412598 135.961441,285.511810 135.014709,284.861908 
	C133.813538,284.037354 131.941864,284.189514 129.474426,283.933838 
z"/>
<path fill="#CBCBCB" opacity="1.000000" stroke="none" 
	d="
M331.949951,295.876465 
	C333.730225,290.985077 335.289978,286.422363 337.169281,281.995300 
	C337.636139,280.895447 339.077148,279.647247 340.178833,279.535400 
	C341.300354,279.421600 343.260406,280.343719 343.640747,281.296356 
	C346.706177,288.974091 349.485291,296.766113 352.468842,304.839844 
	C350.370392,304.839844 348.743774,304.839844 346.859589,304.839844 
	C346.052429,297.668640 340.680847,300.318451 336.323486,299.866913 
	C335.564362,301.559998 334.841858,303.171387 334.090912,304.846191 
	C332.381012,304.846191 330.758026,304.846191 328.620850,304.846191 
	C329.777313,301.767029 330.812378,299.011108 331.949951,295.876465 
M342.057648,290.758545 
	C341.594055,289.583069 341.130463,288.407593 340.447357,286.675507 
	C339.420105,289.728027 338.588684,292.198700 337.619019,295.080231 
	C339.725586,295.080231 341.293243,295.080231 343.211700,295.080231 
	C342.849731,293.697144 342.567627,292.619232 342.057648,290.758545 
z"/>
<path fill="#CBCBCB" opacity="1.000000" stroke="none" 
	d="
M168.414383,294.526733 
	C169.758575,298.108124 170.930283,301.339050 172.141754,304.679596 
	C168.957626,305.298157 166.476440,305.746643 165.281876,301.775848 
	C164.962997,300.715881 161.838272,300.038818 159.999741,300.034546 
	C158.354965,300.030701 155.553406,300.875122 155.267654,301.902863 
	C154.218399,305.676392 151.817978,305.233185 148.480637,304.719330 
	C151.412399,296.744293 154.214828,288.906097 157.252029,281.159973 
	C157.591354,280.294525 159.331314,279.392792 160.300507,279.510010 
	C161.475479,279.652130 163.077164,280.618195 163.525574,281.649078 
	C165.303085,285.735443 166.702408,289.986359 168.414383,294.526733 
M162.622009,295.130096 
	C162.053375,292.522919 161.484726,289.915741 160.916077,287.308533 
	C160.627869,287.287292 160.339661,287.266052 160.051453,287.244812 
	C159.221115,289.766663 158.390778,292.288513 157.383667,295.347229 
	C159.332382,295.347229 160.608200,295.347229 162.622009,295.130096 
z"/>
<path fill="#5FA0C9" opacity="1.000000" stroke="none" 
	d="
M244.543884,179.737457 
	C249.306503,183.409058 253.656616,186.928192 257.907379,190.563461 
	C259.703308,192.099319 261.290192,193.879669 262.997620,195.860748 
	C257.325500,196.277771 251.627823,196.382965 245.457504,196.034195 
	C243.819977,194.296158 242.799652,192.830917 241.461990,191.763306 
	C238.012482,189.010162 234.422623,186.432846 230.888855,183.785278 
	C231.585297,180.599228 233.442673,179.188721 236.796951,179.528976 
	C239.207062,179.773453 241.658325,179.612198 244.543884,179.737457 
z"/>
<path fill="#C8C8C8" opacity="1.000000" stroke="none" 
	d="
M364.225220,303.914612 
	C358.845123,298.779907 357.518036,290.756409 360.731506,284.571533 
	C363.018890,280.169006 366.832886,278.566986 371.515259,279.188690 
	C376.289276,279.822601 379.289398,282.543762 379.148712,288.806366 
	C377.437225,287.754974 375.792267,286.566742 373.994690,285.692352 
	C372.338348,284.886597 370.411560,283.749084 368.802338,284.005096 
	C367.427643,284.223816 365.499695,286.080658 365.283936,287.444977 
	C364.774170,290.668732 364.779968,294.090576 365.318359,297.308319 
	C365.545929,298.668365 367.538147,300.526031 368.908691,300.695038 
	C370.511749,300.892731 372.374023,299.614014 374.008820,298.756378 
	C375.717590,297.860016 377.289581,296.702972 379.760559,295.123413 
	C378.929169,304.238464 373.011444,307.110260 364.225220,303.914612 
z"/>
<path fill="#3C96C5" opacity="1.000000" stroke="none" 
	d="
M316.407440,216.920120 
	C314.887451,215.514053 313.998810,213.912796 312.663818,212.899551 
	C308.736267,209.918549 304.582611,207.236557 300.628448,204.288666 
	C299.548218,203.483368 298.859039,202.153625 297.975220,200.719452 
	C305.867767,200.374344 313.775452,200.374344 322.213074,200.374344 
	C322.213074,205.926804 322.213074,211.273300 322.213074,216.993637 
	C320.087433,216.993637 318.461121,216.993637 316.407440,216.920120 
z"/>
<path fill="#68A0C7" opacity="1.000000" stroke="none" 
	d="
M275.004303,221.047958 
	C280.360352,220.988907 285.716370,220.929855 291.586334,221.278580 
	C296.834930,225.310776 301.643555,228.844559 306.262299,232.611145 
	C307.781036,233.849640 308.808075,235.691010 310.059967,237.256714 
	C304.695557,237.305466 299.331177,237.354218 293.468781,236.931931 
	C289.839722,233.897949 286.662415,231.388947 283.590912,228.756485 
	C280.671173,226.254105 277.862061,223.622665 275.004303,221.047958 
z"/>
<path fill="#89A3C1" opacity="1.000000" stroke="none" 
	d="
M301.073273,249.152863 
	C296.625580,251.393051 292.177887,253.633240 287.320587,255.526154 
	C283.092926,252.199249 279.172241,249.338745 275.507416,246.181305 
	C274.045197,244.921509 273.147980,243.005920 271.993561,241.388885 
	C279.672241,241.327408 287.350891,241.265930 295.506165,241.624237 
	C297.679626,244.413620 299.376465,246.783234 301.073273,249.152863 
z"/>
<path fill="#3C96C5" opacity="1.000000" stroke="none" 
	d="
M281.387543,196.358200 
	C279.632782,194.468262 278.604095,192.382156 276.956512,191.077866 
	C273.895111,188.654419 270.383881,186.806503 267.242920,184.472748 
	C265.927643,183.495483 265.078857,181.890366 264.016113,180.192703 
	C268.699402,179.743927 273.384583,179.673141 278.524475,179.707184 
	C280.268738,181.373642 281.354675,183.180771 282.886017,184.450958 
	C287.492798,188.272095 292.273102,191.884048 297.019470,195.890793 
	C291.980255,196.307587 286.907288,196.411194 281.387543,196.358200 
z"/>
<path fill="#2399D1" opacity="1.000000" stroke="none" 
	d="
M293.985748,175.636780 
	C289.296692,175.693466 284.607666,175.750153 279.450562,175.368896 
	C275.046204,171.649200 271.066071,168.418121 267.190765,165.065857 
	C265.036774,163.202576 263.057556,161.137283 260.999542,159.163025 
	C266.024353,159.152817 271.049194,159.142609 276.539246,159.595917 
	C277.861084,161.144699 278.536316,162.475388 279.609131,163.267914 
	C282.500732,165.404053 285.744110,167.091461 288.496490,169.379623 
	C290.603790,171.131500 292.175720,173.527344 293.985748,175.636780 
z"/>
<path fill="#E3ABB2" opacity="1.000000" stroke="none" 
	d="
M186.019592,241.356018 
	C191.362030,241.307327 196.704453,241.258636 202.515472,241.640137 
	C206.401611,245.082169 209.819153,248.094009 213.236710,251.105835 
	C211.102127,254.227631 210.540955,259.277679 204.356049,257.573730 
	C202.176651,255.726990 200.474869,254.256042 198.710007,252.865128 
	C194.482819,249.533722 190.225967,246.239975 185.988068,242.668823 
	C186.003204,242.056427 186.011398,241.706223 186.019592,241.356018 
z"/>
<path fill="#5FA0C9" opacity="1.000000" stroke="none" 
	d="
M278.536865,200.302841 
	C280.079590,201.865005 280.926575,203.627014 282.296478,204.752472 
	C287.069031,208.673370 292.022644,212.373856 296.950165,216.494781 
	C292.634186,216.879379 288.275452,216.927322 283.413177,216.567139 
	C278.104706,212.528839 273.210358,209.008286 268.546539,205.205032 
	C267.050781,203.985245 266.164185,202.018417 264.998871,200.393387 
	C269.359558,200.332535 273.720215,200.271683 278.536865,200.302841 
z"/>
<path fill="#89A3C1" opacity="1.000000" stroke="none" 
	d="
M246.238052,211.091736 
	C244.802124,216.614548 240.928284,217.843735 235.390274,216.572662 
	C229.218719,212.090469 223.523361,208.016296 217.828003,203.942123 
	C218.506805,200.818649 220.384979,199.620728 223.587921,199.950943 
	C226.060959,200.205887 228.579590,200.018448 231.581619,200.432358 
	C236.802872,204.255249 241.520462,207.673492 246.238052,211.091736 
z"/>
<path fill="#C3A8B8" opacity="1.000000" stroke="none" 
	d="
M249.991287,257.837463 
	C245.302567,257.887146 240.613861,257.936829 235.417725,257.580231 
	C231.319687,254.354599 227.664734,251.611786 224.171936,248.676056 
	C222.881332,247.591293 221.972366,246.052460 220.889343,244.720734 
	C222.587631,238.582108 227.600952,242.091492 231.551987,241.644806 
	C233.881561,243.992920 235.641251,246.051193 237.674347,247.789795 
	C241.700104,251.232422 245.876923,254.498428 249.991287,257.837463 
z"/>
<path fill="#1594CD" opacity="1.000000" stroke="none" 
	d="
M294.444458,175.730011 
	C292.175720,173.527344 290.603790,171.131500 288.496490,169.379623 
	C285.744110,167.091461 282.500732,165.404053 279.609131,163.267914 
	C278.536316,162.475388 277.861084,161.144699 276.991394,159.714020 
	C290.030151,160.053665 300.628174,165.658951 310.368103,175.823273 
	C304.413086,175.823273 299.658112,175.823273 294.444458,175.730011 
z"/>
<path fill="#9DA4BD" opacity="1.000000" stroke="none" 
	d="
M228.942276,223.853455 
	C230.514130,222.849030 231.971832,221.459030 233.690445,220.950241 
	C235.358948,220.456299 237.295166,220.866669 239.594269,221.311707 
	C244.229630,225.080948 248.477737,228.311234 252.496033,231.805786 
	C254.231506,233.315063 255.492020,235.370453 256.968292,237.177765 
	C250.121063,237.281906 243.273849,237.386047 236.477722,237.286209 
	C238.876083,236.944733 241.223358,236.807220 243.570618,236.669708 
	C242.150040,234.241547 240.274841,233.088165 238.557999,231.733994 
	C235.304794,229.167984 232.142410,226.486801 228.942276,223.853455 
z"/>
<path fill="#9DA4BD" opacity="1.000000" stroke="none" 
	d="
M271.535706,241.298538 
	C273.147980,243.005920 274.045197,244.921509 275.507416,246.181305 
	C279.172241,249.338745 283.092926,252.199249 286.955139,255.516235 
	C283.277435,256.554962 279.555542,257.256317 275.372986,257.563843 
	C270.025177,253.380356 265.068756,249.674911 260.294647,245.747849 
	C258.925781,244.621872 258.083954,242.855194 257.000458,241.382278 
	C261.692902,241.324249 266.385376,241.266235 271.535706,241.298538 
z"/>
<path fill="#68A0C7" opacity="1.000000" stroke="none" 
	d="
M264.565796,200.301575 
	C266.164185,202.018417 267.050781,203.985245 268.546539,205.205032 
	C273.210358,209.008286 278.104706,212.528839 282.953125,216.496002 
	C278.304810,216.881851 273.613007,216.930740 268.416382,216.571518 
	C263.277496,212.443619 258.643372,208.723846 254.009247,205.004074 
	C255.210068,198.816101 260.005646,200.218689 264.565796,200.301575 
z"/>
<path fill="#C8C8C8" opacity="1.000000" stroke="none" 
	d="
M307.164062,283.925110 
	C305.225220,283.918945 303.764923,283.918945 302.189087,283.918945 
	C302.189087,282.228668 302.189087,280.987915 302.189087,279.356293 
	C308.394928,279.356293 314.359955,279.199402 320.301849,279.499695 
	C321.382935,279.554321 322.369598,281.477417 323.399841,282.537994 
	C323.101166,282.924561 322.802460,283.311096 322.503784,283.697662 
	C320.217926,283.814636 317.932068,283.931580 315.114075,284.075775 
	C315.114075,290.911652 315.114075,297.803131 315.114075,304.855316 
	C313.141876,304.855316 311.699402,304.855316 309.609619,304.855316 
	C309.609619,299.067688 309.722778,293.325195 309.520264,287.593811 
	C309.476349,286.352417 308.298309,285.151062 307.164062,283.925110 
z"/>
<path fill="#B7A4B6" opacity="1.000000" stroke="none" 
	d="
M250.449738,257.912781 
	C245.876923,254.498428 241.700104,251.232422 237.674347,247.789795 
	C235.641251,246.051193 233.881561,243.992920 231.987701,241.734634 
	C236.007507,241.327057 240.037888,241.264038 244.533478,241.633881 
	C248.192200,244.969894 251.349457,247.914261 254.590302,250.763550 
	C257.340027,253.181061 260.186310,255.488770 262.989868,257.845062 
	C258.962646,257.892731 254.935425,257.940399 250.449738,257.912781 
z"/>
<path fill="#2E9CD2" opacity="1.000000" stroke="none" 
	d="
M260.587494,159.095749 
	C263.057556,161.137283 265.036774,163.202576 267.190765,165.065857 
	C271.066071,168.418121 275.046204,171.649200 278.993713,175.275177 
	C274.649567,175.681274 270.294281,175.743134 265.469635,175.374695 
	C260.596832,171.601379 256.193390,168.258347 251.789917,164.915314 
	C252.946487,160.618912 255.349884,158.098557 260.587494,159.095749 
z"/>
<path fill="#6C9ABC" opacity="1.000000" stroke="none" 
	d="
M230.571609,184.016968 
	C234.422623,186.432846 238.012482,189.010162 241.461990,191.763306 
	C242.799652,192.830917 243.819977,194.296158 245.015335,195.894287 
	C242.117752,196.308304 239.137527,196.777039 236.280792,196.372849 
	C234.507751,196.121994 232.185516,194.943619 231.401794,193.486618 
	C229.641449,190.213974 227.477646,188.884201 223.193237,189.790283 
	C218.062866,186.834595 213.654877,183.923203 209.246887,181.011826 
	C213.794647,177.814407 219.112854,178.762726 221.862686,183.261398 
	C224.394073,187.402695 226.592880,187.661392 230.571609,184.016968 
z"/>
<path fill="#A8A2B6" opacity="1.000000" stroke="none" 
	d="
M263.446289,257.918671 
	C260.186310,255.488770 257.340027,253.181061 254.590302,250.763550 
	C251.349457,247.914261 248.192200,244.969894 244.987427,241.723022 
	C248.682480,241.318268 252.388809,241.257248 256.547791,241.289261 
	C258.083954,242.855194 258.925781,244.621872 260.294647,245.747849 
	C265.068756,249.674911 270.025177,253.380356 274.955322,257.506958 
	C271.299805,257.893372 267.601288,257.942841 263.446289,257.918671 
z"/>
<path fill="#4F9FCC" opacity="1.000000" stroke="none" 
	d="
M296.006409,220.992981 
	C304.124115,220.992981 312.241821,220.992981 321.824799,220.992981 
	C319.268311,226.033234 317.038361,230.429703 314.163574,234.828720 
	C309.401672,232.071243 305.172791,229.460190 301.214569,226.488617 
	C299.224701,224.994766 297.726776,222.845734 296.006409,220.992981 
z"/>
<path fill="#92A4C1" opacity="1.000000" stroke="none" 
	d="
M257.413025,237.325195 
	C255.492020,235.370453 254.231506,233.315063 252.496033,231.805786 
	C248.477737,228.311234 244.229630,225.080948 240.036179,221.400116 
	C243.695145,220.999344 247.392624,220.941956 251.582291,221.315948 
	C255.452698,224.533051 258.873840,227.268799 262.195557,230.120361 
	C264.847412,232.396835 267.378204,234.814362 269.962738,237.169266 
	C265.927765,237.270386 261.892761,237.371490 257.413025,237.325195 
z"/>
<path fill="#EFABAE" opacity="1.000000" stroke="none" 
	d="
M185.981094,242.931015 
	C190.225967,246.239975 194.482819,249.533722 198.710007,252.865128 
	C200.474869,254.256042 202.176651,255.726990 203.951508,257.499207 
	C199.533539,257.894043 194.984344,257.422211 190.629974,258.137054 
	C184.651443,259.118500 181.707550,255.724777 180.751251,251.163300 
	C180.218292,248.621170 182.641830,245.459198 184.194183,242.426147 
	C185.097260,242.494141 185.539169,242.712585 185.981094,242.931015 
z"/>
<path fill="#77A0C2" opacity="1.000000" stroke="none" 
	d="
M253.708176,205.234131 
	C258.643372,208.723846 263.277496,212.443619 267.954956,216.500824 
	C265.361206,216.893707 262.647339,217.353592 260.112183,216.872253 
	C258.201111,216.509384 255.746948,215.368896 254.890381,213.823166 
	C252.912262,210.253586 250.542343,209.242462 246.567825,210.920288 
	C241.520462,207.673492 236.802872,204.255249 232.038834,200.499847 
	C233.964035,200.106445 235.957825,200.216721 237.902603,199.958298 
	C241.611008,199.465515 244.052353,200.603241 245.670914,204.223022 
	C247.413071,208.119141 250.317505,208.202744 253.708176,205.234131 
z"/>
<path fill="#89A3C1" opacity="1.000000" stroke="none" 
	d="
M270.403046,237.318192 
	C267.378204,234.814362 264.847412,232.396835 262.195557,230.120361 
	C258.873840,227.268799 255.452698,224.533051 252.035675,221.404205 
	C255.693222,221.002335 259.389557,220.943604 263.579285,221.312958 
	C268.228363,225.079483 272.477814,228.310135 276.495941,231.806641 
	C278.229279,233.314941 279.484039,235.373230 280.956207,237.181671 
	C277.585266,237.276825 274.214294,237.371979 270.403046,237.318192 
z"/>
<path fill="#77A0C2" opacity="1.000000" stroke="none" 
	d="
M281.390747,237.332031 
	C279.484039,235.373230 278.229279,233.314941 276.495941,231.806641 
	C272.477814,228.310135 268.228363,225.079483 264.033081,221.397522 
	C267.362366,220.994446 270.731262,220.934906 274.552246,220.961655 
	C277.862061,223.622665 280.671173,226.254105 283.590912,228.756485 
	C286.662415,231.388947 289.839722,233.897949 293.014954,236.822723 
	C289.314545,237.283844 285.569916,237.383118 281.390747,237.332031 
z"/>
<path fill="#A8A2B6" opacity="1.000000" stroke="none" 
	d="
M228.639191,224.085815 
	C232.142410,226.486801 235.304794,229.167984 238.557999,231.733994 
	C240.274841,233.088165 242.150040,234.241547 243.570618,236.669708 
	C241.223358,236.807220 238.876083,236.944733 236.070480,237.141998 
	C232.088654,238.261368 229.452652,237.254242 228.241348,233.683624 
	C227.068832,230.227417 224.317230,230.890686 221.045441,230.774963 
	C216.715607,227.468430 213.103897,224.266937 209.492188,221.065430 
	C214.115494,220.227020 217.946243,220.443146 220.291779,225.731140 
	C221.705231,228.917694 225.710342,228.018387 228.639191,224.085815 
z"/>
<path fill="#3C96C5" opacity="1.000000" stroke="none" 
	d="
M251.455704,165.078583 
	C256.193390,168.258347 260.596832,171.601379 265.014130,175.290253 
	C262.727966,175.715988 260.345184,176.199509 258.153839,175.749863 
	C256.354187,175.380569 254.017288,174.298615 253.260284,172.837418 
	C251.393158,169.233475 249.010468,168.135315 244.691055,169.687256 
	C239.709366,166.939850 235.350906,163.968307 230.992462,160.996765 
	C234.269272,157.600754 241.098572,158.032974 243.196442,162.036774 
	C245.045761,165.566269 247.370728,166.906250 251.455704,165.078583 
z"/>
<path fill="#B7A4B6" opacity="1.000000" stroke="none" 
	d="
M209.111282,220.999634 
	C213.103897,224.266937 216.715607,227.468430 220.622177,230.817230 
	C220.339828,231.514404 219.321198,232.014725 219.253006,232.621811 
	C218.482483,239.480225 212.939346,238.262451 209.429733,237.219269 
	C206.810669,236.440781 203.454391,232.436432 203.489014,229.910629 
	C203.530365,226.894989 206.837769,223.924118 209.111282,220.999634 
z"/>
<path fill="#7D9BBA" opacity="1.000000" stroke="none" 
	d="
M209.025452,181.286560 
	C213.654877,183.923203 218.062866,186.834595 222.782928,189.894897 
	C221.071533,192.631424 221.161392,197.078323 215.920471,196.723038 
	C210.300812,196.342087 206.711243,194.509598 205.876862,188.948730 
	C205.536987,186.683655 207.751648,184.035278 209.025452,181.286560 
z"/>
<path fill="#CBA3AD" opacity="1.000000" stroke="none" 
	d="
M220.581665,244.939117 
	C221.972366,246.052460 222.881332,247.591293 224.171936,248.676056 
	C227.664734,251.611786 231.319687,254.354599 234.956360,257.510742 
	C232.673752,257.904816 230.321518,257.773621 228.021744,258.061462 
	C224.120346,258.549774 221.659714,257.269531 219.727356,253.637756 
	C218.968018,252.210648 215.986786,251.965775 213.627060,251.144165 
	C209.819153,248.094009 206.401611,245.082169 202.973282,241.725632 
	C206.838287,240.542694 209.811905,241.057770 211.787491,245.263992 
	C213.713455,249.364655 217.413589,249.125977 220.581665,244.939117 
z"/>
<path fill="#1E86B7" opacity="1.000000" stroke="none" 
	d="
M318.251892,196.415741 
	C316.895813,194.933411 316.115143,193.329605 314.855316,192.329269 
	C309.722168,188.253510 304.442322,184.362534 299.074463,180.078918 
	C303.041138,179.604202 307.155334,179.280899 311.255249,179.410477 
	C312.467590,179.448792 314.153229,180.482101 314.738068,181.545547 
	C316.877838,185.436539 318.693665,189.510376 320.529877,193.561417 
	C321.349060,195.368668 321.343292,196.909546 318.251892,196.415741 
z"/>
<path fill="#4F9FCC" opacity="1.000000" stroke="none" 
	d="
M230.721771,161.204712 
	C235.350906,163.968307 239.709366,166.939850 244.398651,169.962280 
	C242.821808,171.947830 243.240326,176.233627 239.036301,175.820709 
	C235.821762,175.504974 232.511169,176.969650 229.839783,172.890060 
	C226.900208,168.400864 227.487640,165.092285 230.721771,161.204712 
z"/>
<path fill="#92A4C1" opacity="1.000000" stroke="none" 
	d="
M217.551788,204.138550 
	C223.523361,208.016296 229.218719,212.090469 234.956451,216.500916 
	C232.004166,216.893051 228.922684,216.515762 226.032867,217.094864 
	C219.995270,218.304779 217.474167,214.612991 215.948074,210.050186 
	C215.419525,208.469879 216.778671,206.258224 217.551788,204.138550 
z"/>
<path fill="#B7A4B6" opacity="1.000000" stroke="none" 
	d="
M195.142578,213.359467 
	C193.705414,214.576233 192.322937,216.726959 190.819687,216.814987 
	C187.706604,216.997284 184.135513,218.418381 181.790771,214.054810 
	C179.741592,210.241318 178.249893,207.086441 182.334686,203.331116 
	C185.419510,204.819916 188.072311,206.378754 190.428192,208.301361 
	C192.197357,209.745148 193.585052,211.656357 195.142578,213.359467 
z"/>
<path fill="#A8A2B6" opacity="1.000000" stroke="none" 
	d="
M195.438110,213.151794 
	C193.585052,211.656357 192.197357,209.745148 190.428192,208.301361 
	C188.072311,206.378754 185.419510,204.819916 182.561386,203.059448 
	C184.915558,198.661530 192.351059,198.627579 195.044388,202.871201 
	C197.127930,206.154053 199.264801,209.324829 195.438110,213.151794 
z"/>
<path fill="#7790AB" opacity="1.000000" stroke="none" 
	d="
M301.406250,249.073288 
	C299.376465,246.783234 297.679626,244.413620 295.965820,241.697906 
	C300.356354,241.351791 304.763885,241.351791 310.587891,241.351791 
	C307.072815,244.387482 304.406006,246.690598 301.406250,249.073288 
z"/>
<path fill="#5B8AAB" opacity="1.000000" stroke="none" 
	d="
M295.725220,220.892929 
	C297.726776,222.845734 299.224701,224.994766 301.214569,226.488617 
	C305.172791,229.460190 309.401672,232.071243 313.850220,234.964722 
	C313.003754,235.907852 311.825745,236.717529 310.353882,237.391953 
	C308.808075,235.691010 307.781036,233.849640 306.262299,232.611145 
	C301.643555,228.844559 296.834930,225.310776 292.050354,221.342499 
	C293.148315,220.930069 294.296173,220.861481 295.725220,220.892929 
z"/>
<path fill="#CBA3AD" opacity="1.000000" stroke="none" 
	d="
M185.988068,242.668823 
	C185.539169,242.712585 185.097260,242.494141 184.433990,242.162689 
	C184.630737,241.757523 185.048828,241.465363 185.743256,241.264603 
	C186.011398,241.706223 186.003204,242.056427 185.988068,242.668823 
z"/>
<path fill="#000000" opacity="1.000000" stroke="none" 
	d="
M192.690414,285.447937 
	C193.102768,291.152313 192.410629,291.623627 185.230957,290.858429 
	C185.170776,289.783997 185.060501,288.667633 185.059097,287.551086 
	C185.057709,286.436584 185.165375,285.321930 185.267166,283.426514 
	C187.924393,284.034088 190.194427,284.553101 192.690414,285.447937 
z"/>
<path fill="#000000" opacity="1.000000" stroke="none" 
	d="
M129.916870,283.927185 
	C131.941864,284.189514 133.813538,284.037354 135.014709,284.861908 
	C135.961441,285.511810 136.548264,287.412598 136.419708,288.668152 
	C136.320160,289.640381 135.015717,290.924164 133.981201,291.266541 
	C132.319733,291.816315 130.438812,291.702820 127.340843,291.991760 
	C128.160294,288.896912 128.817352,286.415375 129.916870,283.927185 
z"/>
<path fill="#000000" opacity="1.000000" stroke="none" 
	d="
M342.171570,291.149902 
	C342.567627,292.619232 342.849731,293.697144 343.211700,295.080231 
	C341.293243,295.080231 339.725586,295.080231 337.619019,295.080231 
	C338.588684,292.198700 339.420105,289.728027 340.447357,286.675507 
	C341.130463,288.407593 341.594055,289.583069 342.171570,291.149902 
z"/>
<path fill="#000000" opacity="1.000000" stroke="none" 
	d="
M162.253021,295.238647 
	C160.608200,295.347229 159.332382,295.347229 157.383667,295.347229 
	C158.390778,292.288513 159.221115,289.766663 160.051453,287.244812 
	C160.339661,287.266052 160.627869,287.287292 160.916077,287.308533 
	C161.484726,289.915741 162.053375,292.522919 162.253021,295.238647 
z"/>
</svg>
